<svg version="1.0" xmlns="http://www.w3.org/2000/svg" width="710px" height="830px" viewBox="0 0 710 830" preserveAspectRatio="xMidYMid meet">
 <g fill="none">
  <path d="M0 415 l0 -415 355 0 355 0 0 415 0 415 -355 0 -355 0 0 -415z m470.50 -1.20 l0 -395.75 -3.60 1.20 c-2 0.65 -16.15 5.25 -31.40 10.20 -15.25 4.95 -31.70 10.25 -36.50 11.80 -4.80 1.60 -9.30 3.05 -10 3.25 -0.70 0.20 -12.40 4 -26 8.40 -36.20 11.70 -70.30 22.75 -90.50 29.25 -9.75 3.15 -22.70 7.35 -28.75 9.35 -6.05 1.95 -13.35 4.35 -16.25 5.25 -7.10 2.30 -39.10 12.60 -50.25 16.25 -12.25 3.95 -39.40 12.75 -69.50 22.50 -37.50 12.15 -56.85 18.40 -73.75 23.85 l-15.25 4.95 -0.15 292.05 -0.10 292 3.60 0.60 c2 0.30 15.45 2.10 29.90 4.05 14.45 1.95 27.70 3.75 29.50 4 1.80 0.25 13.40 1.85 25.75 3.50 12.40 1.70 28.15 3.80 35 4.75 6.90 0.95 20.95 2.85 31.25 4.25 10.30 1.40 22.80 3.05 27.75 3.75 12.05 1.65 34.40 4.65 57 7.75 10.20 1.35 32.55 4.40 49.75 6.75 35.70 4.85 133.55 18.10 147.75 20 5.25 0.70 9.85 1.35 10.25 1.45 0.40 0.10 1.60 0.20 2.65 0.25 l1.85 0.05 0 -395.70z m26 393.45 c5.90 -0.65 20.45 -2.35 32.25 -3.70 11.85 -1.40 32.30 -3.75 45.50 -5.30 13.20 -1.55 28.75 -3.35 34.50 -4 47.20 -5.50 75.50 -8.75 76.70 -8.75 l1.45 0 0.25 -42.60 c0.20 -23.45 0.25 -181 0.20 -350.15 l-0.10 -307.50 -3.25 -1.10 c-1.80 -0.60 -13.35 -4.40 -25.75 -8.40 -12.35 -4.05 -24.05 -7.85 -26 -8.50 -1.90 -0.65 -8.65 -2.85 -15 -4.95 -6.30 -2.05 -23.30 -7.60 -37.75 -12.30 -14.45 -4.75 -32.75 -10.75 -40.75 -13.35 -7.95 -2.60 -23.65 -7.75 -34.85 -11.45 -11.20 -3.70 -20.60 -6.70 -20.85 -6.70 -0.40 0 -0.55 119 -0.55 395.25 l0 395.30 1.65 -0.30 c0.85 -0.15 6.45 -0.80 12.35 -1.50z"/>
  <path d="M349 768.25 c-40.85 -4.75 -82.10 -9.60 -91.75 -10.70 -23.60 -2.75 -84.95 -9.85 -95.50 -11.05 -12.40 -1.45 -79.10 -9.20 -103.15 -12 -11.35 -1.30 -20.80 -2.55 -21 -2.75 -0.20 -0.20 -0.40 -26.40 -0.50 -58.25 -0.10 -45.90 0 -58 0.50 -58.30 0.35 -0.20 3.80 -0.45 7.65 -0.50 3.85 -0.05 25.25 -0.45 47.50 -0.90 98.20 -1.90 118.45 -2 143.50 -0.65 8.80 0.45 19.50 0.95 23.75 1.10 4.25 0.15 14.50 0.60 22.75 1 8.25 0.40 20.65 0.95 27.50 1.25 6.90 0.30 17.45 0.75 23.50 1 6.05 0.30 16.50 0.75 23.25 1 14.25 0.60 28.80 1.25 51.35 2.25 8.90 0.40 17.15 0.75 18.40 0.75 l2.25 0 0 77.75 0 77.75 -2.85 -0.05 c-1.60 -0.05 -36.30 -3.95 -77.15 -8.70z m71.50 -59 l0 -58.25 -1.35 0 c-0.80 0 -3.85 -0.20 -6.90 -0.50 -11.20 -0.95 -32.10 -2.55 -53 -4 -11.80 -0.80 -24.75 -1.75 -28.75 -2 -10.45 -0.75 -28.35 -1.90 -38.50 -2.50 -4.80 -0.30 -15.70 -0.95 -24.25 -1.50 -8.50 -0.55 -23.15 -1.45 -32.50 -2 -9.35 -0.55 -22.15 -1.35 -28.50 -1.75 -6.30 -0.40 -20.60 -1.30 -31.75 -2 -38.70 -2.40 -54.35 -3.45 -85.25 -5.75 -26.55 -2 -39.55 -3 -41.65 -3.30 l-2.10 -0.25 0.10 49.40 0.15 49.35 11.75 1.35 c6.45 0.75 22.55 2.60 35.75 4.15 76.75 8.90 105.70 12.25 142.75 16.55 77.75 9 97.80 11.35 139.50 16.20 22.95 2.70 42.35 4.95 43.15 5 l1.35 0.05 0 -58.25z m0 -72.95 l0 -6.15 -5.85 -0.35 c-7.85 -0.45 -25.25 -1.20 -39.40 -1.80 -25.75 -1.05 -94.15 -4 -103.50 -4.50 -5.50 -0.30 -18.10 -0.85 -28 -1.25 -9.90 -0.40 -22.25 -1 -27.50 -1.25 -5.25 -0.30 -15.95 -0.45 -24 -0.25 -7.95 0.15 -20.45 0.35 -27.75 0.50 -7.30 0.10 -20.65 0.40 -29.75 0.60 -18.95 0.40 -19.50 0.35 16.50 2.60 13.20 0.85 27.25 1.75 31.25 2.05 7.50 0.55 42.05 2.65 57.50 3.50 4.80 0.30 12.25 0.70 16.50 1 4.25 0.25 18.35 1.15 31.25 2 12.95 0.80 26.90 1.70 31 2 4.15 0.25 11.10 0.70 15.50 1 4.40 0.30 11.05 0.75 14.75 1 3.70 0.25 10.45 0.75 15 1.05 6.55 0.40 53.30 4.10 55.90 4.40 0.45 0.05 0.60 -1.50 0.60 -6.15z"/>
  <path d="M415 613.70 c-0.70 -0.05 -6.65 -0.40 -13.25 -0.70 -38.35 -1.70 -83.70 -3.85 -144.75 -6.75 -20.20 -1 -40.25 -1.90 -44.50 -2.10 -4.25 -0.15 -7.85 -0.50 -8 -0.70 -0.15 -0.20 -0.25 -3.60 -0.25 -7.55 l0.05 -7.15 3.20 0.10 c1.80 0.05 8.55 0.35 15 0.65 6.45 0.30 21.30 1 33 1.50 36.20 1.65 42.75 1.95 60 2.75 9.20 0.45 21.70 1 27.75 1.25 26.70 1.10 68.15 3.05 75.50 3.50 4.40 0.25 8.30 0.50 8.65 0.50 0.45 0 0.60 1.85 0.60 7.50 l0 7.50 -5.85 -0.05 c-3.25 -0.05 -6.45 -0.15 -7.15 -0.25z"/>
  <path d="M410.25 588.40 c-5.20 -0.20 -29.40 -1.30 -53.75 -2.40 -24.35 -1.10 -48.50 -2.20 -53.75 -2.50 -5.20 -0.25 -14.90 -0.70 -21.50 -1 -6.60 -0.30 -16.50 -0.75 -22 -1 -17.05 -0.80 -32.45 -1.50 -62 -2.80 -29.15 -1.25 -51.60 -2.25 -72 -3.25 -6.30 -0.30 -15.55 -0.70 -20.50 -0.90 l-9 -0.30 0.05 -10.75 c0.05 -5.90 0.10 -19.85 0.15 -30.90 l0.05 -20.20 3.65 0.30 c3.85 0.30 67.90 1.05 90.85 1.05 l13.75 0 -0.15 -8.30 -0.15 -8.30 25.50 -0.35 c14.05 -0.25 25.70 -0.30 25.90 -0.15 0.40 0.25 113.75 0.90 152.55 0.85 l20.10 0 0 45.75 0 45.75 -4.10 -0.10 c-2.30 0 -8.40 -0.25 -13.65 -0.50z m8.25 -35.90 l0 -27.50 -14.35 -0.05 c-7.95 -0.05 -16.55 -0.10 -19.15 -0.20 -7.15 -0.15 -49.90 -0.75 -78.75 -1 -14 -0.15 -33.80 -0.40 -44 -0.50 -24.50 -0.35 -54.25 -0.65 -82.75 -1 -12.80 -0.10 -34.90 -0.35 -49.10 -0.55 l-25.90 -0.30 0 22.30 0 22.30 2.65 0 c1.40 0 6.90 0.25 12.10 0.50 23.15 1.15 66.85 3.15 88.75 4 6.75 0.25 16.55 0.70 21.75 0.95 5.25 0.30 15 0.75 21.75 1.05 6.75 0.30 17.10 0.75 23 1 5.90 0.25 15.95 0.70 22.25 1 6.35 0.30 16.55 0.75 22.75 1 6.20 0.30 21.50 0.95 34 1.50 29.50 1.25 45.25 2 53 2.45 3.45 0.25 7.55 0.45 9.15 0.50 l2.85 0.05 0 -27.50z"/>
  <path d="M300.25 484.45 c-82.35 -0.35 -141.55 -0.75 -179.60 -1.25 l-23.65 -0.30 0 -30.40 0 -30.40 6.15 -0.30 c3.35 -0.15 19.15 -0.65 35.10 -1.05 15.95 -0.40 30.25 -0.85 31.75 -1 1.50 -0.15 9.70 -0.35 18.25 -0.55 8.50 -0.15 15.65 -0.40 15.85 -0.55 0.25 -0.10 0.40 -44.60 0.40 -98.90 0 -93.55 0.05 -98.70 0.90 -98.95 5.30 -1.60 69.15 -16.80 70.65 -16.80 l1.95 0 0 15.25 c0 8.40 -0.15 15.25 -0.35 15.25 -0.85 0 -52 11.95 -53.20 12.45 -2 0.75 -4.90 3.45 -6.10 5.75 l-1.10 2.05 0 59.25 0 59.25 1.15 2.35 c1.50 3.05 4 5.20 6.95 6.05 2.55 0.70 2.05 0.70 48.90 -1.45 20.40 -0.95 30.55 -1.35 52 -2.20 8.25 -0.30 16.15 -0.80 17.50 -1.05 3.30 -0.65 6.15 -2.65 8 -5.70 l1.50 -2.40 0 -70.55 0 -70.55 -1.35 -2.30 c-1.65 -2.80 -4.10 -4.75 -7 -5.50 -2 -0.55 -3.75 -0.20 -26.30 5 -13.25 3.05 -24.65 5.55 -25.30 5.55 l-1.20 0 -0.20 -15.10 c-0.15 -8.35 -0.10 -15.30 0.05 -15.50 0.40 -0.50 133.20 -32.90 134.75 -32.90 l1.30 0 0 123.15 c0 67.70 0.15 139.15 0.35 158.75 l0.30 35.60 -1.20 0.05 c-7.10 0.20 -64.80 0.20 -127.20 -0.10z m118.70 -24.30 c-0.05 -9.85 -0.25 -22.60 -0.40 -28.40 l-0.30 -10.50 -1.50 0.05 c-0.80 0.05 -9.05 0.25 -18.25 0.40 -9.20 0.20 -22.35 0.55 -29.25 0.80 -6.85 0.25 -17.10 0.45 -22.70 0.50 -5.60 0 -10.35 0.15 -10.55 0.25 -0.30 0.20 -31.25 0.95 -60.75 1.55 -6.60 0.10 -17.40 0.40 -24 0.70 -6.60 0.25 -15.70 0.45 -20.25 0.50 -4.55 0 -11.40 0.10 -15.25 0.25 -7.45 0.30 -40.30 1.15 -57 1.50 -5.50 0.15 -13.70 0.35 -18.25 0.50 -4.55 0.15 -13.75 0.40 -20.50 0.50 -6.75 0.15 -12.75 0.40 -13.35 0.50 l-1.15 0.25 0 23 c0 12.60 0.20 23.05 0.40 23.20 0.55 0.30 32.95 0.60 141.35 1.30 47.85 0.30 93.40 0.60 101.25 0.65 7.85 0.05 26.90 0.15 42.40 0.25 l28.10 0.15 -0.05 -17.90z m-181.20 -51.65 c6.05 -0.30 15.50 -0.75 21 -1 20.55 -1.05 29.80 -1.50 41.50 -2 16.50 -0.70 49.35 -2.50 49.60 -2.70 0.05 -0.05 0.25 -2.60 0.45 -5.75 l0.35 -5.70 -6.20 0.35 c-3.40 0.15 -10.15 0.55 -14.95 0.80 -4.80 0.25 -13.45 0.70 -19.25 1 -15.95 0.75 -29.50 1.45 -45.50 2.25 -7.95 0.40 -19.90 0.95 -26.50 1.25 -6.60 0.30 -13.25 0.65 -14.80 0.80 l-2.80 0.30 -0.35 4.10 c-0.15 2.20 -0.30 4.80 -0.30 5.70 l0 1.65 3.40 -0.25 c1.85 -0.15 8.30 -0.50 14.35 -0.80z m138.40 -9.30 l3.35 -0.30 0 -100.95 c0 -96 -0.05 -101 -0.85 -100.75 -0.50 0.15 -2.95 0.80 -5.50 1.50 -2.55 0.65 -4.85 1.35 -5.15 1.55 -0.55 0.35 -0.75 187.15 -0.15 195.20 l0.30 4.55 2.30 -0.25 c1.25 -0.10 3.80 -0.35 5.70 -0.55z m10.70 -151.60 c-0.05 -27.70 -0.10 -5 -0.10 50.40 0 55.40 0.05 78.10 0.10 50.35 0.10 -27.70 0.10 -73 0 -100.75z m18.30 147.90 l2.35 0 0 -102.20 0 -102.15 -5.60 1.55 -5.65 1.55 -0.35 4.25 c-0.30 4.10 -0.30 185.05 0 193.45 l0.20 4.20 3.30 -0.35 c1.85 -0.15 4.40 -0.30 5.75 -0.30z m9.70 -156.10 c-0.05 -26.75 -0.10 -5 -0.10 48.35 0 53.35 0.05 75.25 0.10 48.65 0.10 -26.55 0.10 -70.20 0 -97z"/>
  <path d="M160.25 382.75 c-12.50 -1.05 -19.65 -1.60 -54.75 -4.25 -18 -1.35 -34.20 -2.60 -35.95 -2.75 -3.80 -0.35 -7.30 -2 -9.45 -4.45 -3.25 -3.70 -3.10 -0.25 -3.10 -72.50 0 -36.05 0.15 -66.40 0.30 -67.45 0.55 -3.05 3.15 -6.90 5.90 -8.60 4.65 -2.85 4.15 -2.90 62.70 7 28.70 4.80 52.70 9 53.25 9.35 2.60 1.35 4.40 3.20 5.65 5.65 l1.30 2.65 -0.05 63.30 c-0.05 69.90 0.20 65.20 -3.20 68.70 -3.85 4.05 -7.75 4.60 -22.60 3.35z m-30.65 -18.50 c8 -1.65 17.40 -6.85 23.85 -13.20 17.70 -17.45 23.90 -44.90 15.75 -69.55 -8.25 -24.95 -30.45 -41.80 -52 -39.40 -22.95 2.50 -42.05 22.90 -46.75 49.90 -2.40 13.85 -0.10 29.75 6.15 42.20 7.10 14.25 18.90 24.80 32.40 29 7.45 2.35 12.90 2.60 20.60 1.05z"/>
  <path d="M115.50 362.95 c-1.80 -0.25 -4.35 -0.70 -5.75 -1.05 l-2.50 -0.65 0.05 -8.25 c0 -8.70 0.80 -15.05 3 -24.45 0.65 -2.85 1.15 -5.30 1 -5.40 -0.70 -0.70 -8.90 20.30 -11.05 28.50 l-0.90 3.35 -1.90 0 c-1.55 0 -2.40 -0.45 -4.55 -2.30 -3.55 -3.15 -7.70 -8 -8.90 -10.50 -1.15 -2.35 -1.25 -4.60 -0.30 -6.85 1.15 -2.75 6.70 -9.70 12 -14.95 3.10 -3.10 4.45 -4.75 3.55 -4.25 -4.10 2.10 -15.75 10.70 -17.70 13.05 -0.40 0.45 -1.45 0.80 -2.55 0.80 l-1.85 0 -1.05 -3.60 c-1.95 -6.65 -2.65 -10.55 -2.75 -15.15 l-0.10 -4.50 6 -1.10 c7.25 -1.30 19.05 -2.65 23.45 -2.65 l3.15 0 0.35 4.60 c0.25 3.50 0.20 4.65 -0.30 4.95 -0.45 0.30 -0.35 0.45 0.40 0.45 1.45 0 5.20 5.80 5.20 7.95 0 1.45 0.10 1.55 1.95 1.55 1.05 0 3.20 0.55 4.75 1.25 l2.80 1.25 0 3.40 c0 7.20 3.15 19.80 6.95 27.55 0.85 1.80 1.55 3.95 1.55 4.85 0 1.50 -0.15 1.70 -1.60 1.90 -3.60 0.55 -9.35 0.70 -12.40 0.25z"/>
  <path d="M133.65 353.90 c-5.85 -8.85 -10.50 -19.90 -11 -26.15 l-0.25 -3 2.40 -0.65 c1.35 -0.40 3.40 -0.80 4.50 -0.95 2 -0.25 2.15 -0.15 3.65 2.05 3.80 5.50 12.55 12.55 19.95 16 2.90 1.40 3.10 1.60 3.10 3.15 0 1.45 -0.60 2.30 -3.85 5.60 -2.15 2.15 -5.45 4.95 -7.40 6.20 -2.90 1.95 -3.90 2.35 -5.75 2.35 l-2.30 0 -3.05 -4.60z"/>
  <path d="M153.40 336.50 c-7.35 -2.45 -13.45 -5.95 -18.75 -10.75 -2.90 -2.60 -3.45 -4.50 -1.75 -6.40 0.45 -0.55 -0.20 -0.20 -1.55 0.80 -2.80 2.15 -4.45 2.50 -9.80 2.30 -3.45 -0.20 -4.25 -0.40 -6.15 -1.70 -2.30 -1.65 -5.05 -5.75 -6 -9 -0.35 -1.10 -0.60 -4.60 -0.60 -7.75 0 -4.70 0.20 -6.25 1.10 -8.55 2.20 -5.55 6.30 -8.85 11.65 -9.30 4.10 -0.40 7.45 0.55 10.30 2.95 l2.40 2 -2.40 -2.30 c-2.35 -2.25 -2.45 -2.35 -2.20 -4.65 0.10 -1.35 0.75 -4.65 1.35 -7.40 1.45 -6.45 1.60 -16.60 0.30 -22.25 -0.50 -2.05 -1 -4.95 -1.15 -6.35 l-0.25 -2.65 2.05 0 c2.65 0 9.20 2.70 11.30 4.75 2.15 2 3.20 5.50 3.90 12.75 0.40 4.70 0.40 6.55 -0.25 10.25 -0.80 4.75 -2.75 10.15 -4.80 13.50 l-1.25 2 1.60 -1.45 c1.85 -1.75 5.95 -7.60 7.55 -10.80 1.50 -3 3.35 -8.45 3.80 -11.25 0.30 -2.15 0.40 -2.25 1.95 -2.25 1.55 0 1.85 0.30 3.95 3.65 1.20 1.95 2.95 5.40 3.85 7.60 1.35 3.35 1.60 4.65 1.60 8 0 4.65 -1.20 7.85 -4.55 12.05 -2.30 2.90 -7.90 6.85 -11.35 8.05 -3.65 1.25 -2.15 1.40 1.85 0.15 4.45 -1.35 9.60 -4 12.30 -6.30 1.45 -1.25 2.50 -1.70 3.80 -1.70 1.65 0 1.80 0.15 2.10 1.80 0.50 2.60 -0.05 17.65 -0.65 18.25 -0.90 0.90 -6.30 1.95 -11.90 2.25 -5.80 0.35 -12.25 -0.25 -16.70 -1.60 -2.95 -0.85 -3 -1.05 -1.85 -7 0.65 -3.65 0.40 -7.50 -0.70 -10.45 -0.30 -0.75 -0.50 -2.30 -0.50 -3.50 0 -1.95 -0.10 -2.15 -1.35 -2.35 l-1.40 -0.20 1.10 2.30 c3 6 2.80 15.45 -0.40 21.50 -1.25 2.40 -1.30 2.60 -0.25 1.30 1.05 -1.25 1.40 -1.40 3.35 -1.15 1.20 0.10 4.25 1.05 6.70 2 5.35 2.10 11.90 3.35 17.70 3.35 l4.15 0 -0.20 2.90 c-0.25 2.90 -2.55 9.50 -4.40 12.50 -1.25 2.05 -2.70 2.05 -8.60 0.10z m-28.05 -20.45 c3.55 -2.55 5.95 -9.15 5.10 -13.80 -1.05 -5.55 -4.85 -10.75 -7.95 -10.75 -1.90 0 -4.75 2.65 -6.35 5.90 -1.20 2.45 -1.40 3.45 -1.40 7.10 0 3.60 0.20 4.65 1.35 6.75 1.90 3.60 4.55 6.10 6.70 6.20 0.30 0.05 1.45 -0.60 2.55 -1.40z"/>
  <path d="M94.25 301.70 c-3.85 -0.35 -10.25 -0.65 -14.20 -0.65 l-7.20 -0.05 0.30 -5 c0.15 -2.75 0.90 -7.50 1.60 -10.50 l1.35 -5.50 2.40 0 c4.95 0 17.45 4 25 8.05 2.95 1.55 3.45 1.70 2.25 0.70 -5.05 -4.30 -15.75 -10.45 -22.50 -13 -2.85 -1.10 -3 -1.25 -3.15 -2.95 -0.20 -2 2.15 -6.40 6.15 -11.40 2.05 -2.60 2.45 -2.90 4.15 -2.90 3.75 0 13.25 6.15 19.15 12.35 7.10 7.50 9.85 13.65 6.70 15.05 -0.70 0.30 -2.25 1.50 -3.45 2.60 -1.20 1.10 -2.60 2 -3.20 2 -0.80 0 -1.05 0.40 -1.25 2.15 -0.15 1.15 -0.80 3.85 -1.45 5.95 l-1.15 3.90 -2.25 -0.05 c-1.25 -0.05 -5.40 -0.40 -9.25 -0.75z"/>
  <path d="M121.45 284.15 l-2.30 -0.20 -1.60 -4.15 c-0.90 -2.30 -2.75 -5.95 -4.15 -8.10 -2.95 -4.65 -9.35 -11.35 -13.75 -14.55 -2.80 -2 -3.15 -2.45 -3.15 -3.90 0 -1.90 0.85 -2.65 5.75 -5.15 4.40 -2.20 9.45 -3.60 14.10 -3.95 l4.05 -0.30 2 3.95 c2.25 4.55 4.25 10.35 5.35 15.70 0.90 4.30 1.55 16.40 1.05 19.15 -0.35 1.85 -0.35 1.85 -2.70 1.75 -1.30 -0.05 -3.40 -0.15 -4.65 -0.25z"/>
  <path d="M224.85 374.75 c-0.80 -0.75 -0.85 -5.15 -0.85 -60.50 0 -64.95 -0.20 -60.85 2.65 -61.50 34.40 -7.95 49 -11.25 50.05 -11.25 l1.30 0 0 7.80 0 7.80 -2.20 -0.15 -2.15 -0.20 1.95 2.25 c1.10 1.25 3.30 4.95 4.95 8.25 5 10.25 6.90 18.70 7.30 33.25 0.30 10.85 -0.50 19.05 -2.85 28 -2.15 8.05 -6.45 16.85 -10.40 21.15 -0.90 0.95 -1.05 1.35 -0.55 1.35 21.50 0.60 25 0.55 27.55 -0.30 11.65 -3.80 20.65 -17 24.20 -35.45 1.30 -6.70 1.20 -17.95 -0.25 -24.65 -3.35 -15.75 -10.65 -26.75 -20.85 -31.45 -2.15 -1 -4 -1.40 -7.50 -1.60 -2.55 -0.15 -4.70 -0.40 -4.85 -0.55 -0.35 -0.40 -0.75 -19 -0.40 -19.20 0.15 -0.10 11.10 -2.70 24.30 -5.75 23.40 -5.40 28.35 -6.25 29.65 -4.95 0.45 0.45 0.60 16.95 0.60 71.20 0 64.75 -0.05 70.65 -0.80 71.25 -0.60 0.50 -4.40 0.85 -14.15 1.30 -7.30 0.30 -20.85 0.90 -30.05 1.35 -9.20 0.45 -22.50 1 -29.50 1.30 -7 0.30 -16.70 0.75 -21.50 1 -21.80 1.15 -24.75 1.20 -25.65 0.25z m35.15 -25.70 c11.15 -4.25 19.70 -24.05 19.65 -45.55 0 -20.70 -7.75 -39.35 -18.35 -44.30 -3.40 -1.60 -4.60 -1.50 -8.10 0.60 -11.30 6.75 -19.05 22.45 -20.45 41.45 -0.90 11.60 3 27.20 8.95 36.15 2.85 4.35 8.30 9.50 11.80 11.25 3.20 1.60 3.30 1.60 6.50 0.40z"/>
  <path d="M48.15 369.65 c-0.50 -0.20 -0.65 -14.55 -0.65 -69.55 0 -38.15 0.20 -69.65 0.45 -70 0.25 -0.45 1.25 -0.60 3.10 -0.50 l2.70 0.15 0.15 69.45 c0.05 50.90 -0.05 69.60 -0.45 70.10 -0.55 0.70 -4 0.90 -5.30 0.35z"/>
  <path d="M175.25 189.25 c-0.25 -0.10 -2.25 -0.55 -4.35 -1 -3.85 -0.85 -3.90 -0.85 -3.90 -2.45 l0 -1.55 10.65 -2.90 c5.80 -1.55 11.35 -2.85 12.25 -2.85 0.90 0 3.55 0.50 5.85 1.05 l4.25 1.05 0 1.85 0 1.80 -10.40 2.65 c-9.20 2.35 -12.75 2.90 -14.35 2.35z"/>
  <path d="M145.90 183.10 l-5.90 -1.25 0 -1.70 c0 -0.90 0.10 -1.65 0.20 -1.65 0.10 0 5.50 -1.45 12 -3.25 6.50 -1.80 12.25 -3.25 12.80 -3.25 0.55 0 3.85 0.70 7.30 1.55 l6.25 1.60 -0.15 1.75 -0.15 1.75 -10.75 2.90 c-7 1.90 -11.65 2.95 -13.25 2.90 -1.35 -0.05 -5.15 -0.65 -8.35 -1.35z"/>
  <path d="M204.90 179.40 c-3.90 -1 -3.90 -1 -3.90 -2.65 0 -1.15 0.25 -1.75 0.90 -1.95 8.45 -2.50 21.65 -5.80 23.25 -5.80 2.05 0 3.15 0.25 8.75 1.80 2.50 0.70 2.60 0.80 2.60 2.45 0 1.50 -0.20 1.80 -1.35 2.05 -0.80 0.20 -5.70 1.40 -10.95 2.75 -10.70 2.75 -13.25 2.95 -19.30 1.35z"/>
  <path d="M119.35 177.60 l-5.90 -1.30 0.15 -1.75 c0.10 -1.35 0.45 -1.80 1.40 -2.10 9.20 -2.75 23.85 -6.45 25.50 -6.45 1.90 0 7.85 1.30 11.90 2.55 1.35 0.45 1.60 0.75 1.60 2.10 l0 1.60 -12.65 3.40 c-6.90 1.85 -13.40 3.35 -14.35 3.30 -0.95 -0.05 -4.40 -0.65 -7.65 -1.35z"/>
  <path d="M181.75 173.50 l-5.50 -1.35 -0.15 -1.70 -0.15 -1.70 11.65 -3.15 c6.40 -1.70 12.15 -3.10 12.80 -3.10 0.60 0 3.80 0.70 7.15 1.60 l6 1.60 -0.15 1.70 -0.15 1.75 -10.75 2.90 c-6.30 1.75 -11.70 2.90 -13 2.90 -1.25 -0.05 -4.70 -0.70 -7.75 -1.45z"/>
  <path d="M240.90 170.05 l-4.90 -1.30 0 -1.55 c0 -1.90 -1.25 -1.45 14.50 -5.65 6.20 -1.70 12.20 -3.05 13.25 -3 1.10 0 4.25 0.65 7 1.40 l5 1.35 0.15 1.70 0.15 1.75 -13.40 3.40 c-7.35 1.85 -14.20 3.35 -15.15 3.30 -0.95 -0.05 -3.95 -0.65 -6.60 -1.40z"/>
  <path d="M156.60 167.10 l-5.15 -1.30 0.15 -1.80 0.15 -1.75 10.25 -2.85 c6.45 -1.80 11.25 -2.85 12.95 -2.90 1.50 0 5.15 0.60 8.15 1.35 l5.40 1.30 0 1.80 0 1.85 -10.60 2.85 c-12.20 3.30 -13.55 3.40 -21.30 1.45z"/>
  <path d="M216.90 163.90 l-5.90 -1.50 0 -1.60 0 -1.60 13.40 -3.60 c7.35 -2 13.80 -3.60 14.30 -3.60 0.50 0 3.70 0.75 7.15 1.60 l6.20 1.65 -0.15 1.70 -0.15 1.70 -12.50 3.40 c-6.85 1.90 -13.40 3.40 -14.50 3.40 -1.10 -0.05 -4.65 -0.70 -7.85 -1.55z"/>
  <path d="M282.50 160.45 c-8.35 -2.20 -7.50 -1.75 -7.50 -3.95 0 -1.40 0.20 -2 0.70 -2 0.40 0 6.10 -1.45 12.65 -3.25 7.20 -1.95 12.90 -3.25 14.40 -3.25 1.35 0 5.05 0.60 8.10 1.35 l5.65 1.40 0 1.80 0 1.80 -13.95 3.55 c-7.65 2 -14.45 3.60 -15.10 3.55 -0.65 0 -2.90 -0.50 -4.95 -1z"/>
  <path d="M191.90 157.55 l-5.40 -1.30 0 -1.85 c0 -1.30 0.25 -1.90 0.90 -2.10 0.45 -0.15 5.80 -1.60 11.90 -3.25 12.85 -3.55 14.55 -3.65 22.20 -1.60 l5.25 1.40 0.15 1.70 0.15 1.75 -12.40 3.35 c-8.40 2.30 -13.20 3.35 -14.90 3.30 -1.35 -0.05 -4.90 -0.65 -7.85 -1.40z"/>
  <path d="M255.50 153.55 l-5.25 -1.35 -0.15 -1.85 c-0.10 -1 -0.05 -1.85 0.10 -1.85 0.15 0 6.05 -1.55 13.10 -3.50 7.10 -1.90 13.75 -3.50 14.85 -3.50 1.10 0 4.65 0.70 7.90 1.60 l5.95 1.55 0 1.55 0 1.55 -13.65 3.65 c-7.50 2 -14.50 3.60 -15.60 3.55 -1.10 0 -4.35 -0.65 -7.25 -1.40z"/>
  <path d="M320.40 149.35 l-5.90 -1.60 0 -1.80 0 -1.80 12.15 -3.30 c6.70 -1.85 12.90 -3.35 13.85 -3.35 0.95 0 4.70 0.75 8.25 1.65 l6.50 1.65 0.15 1.75 0.15 1.80 -12.35 3.15 c-6.80 1.75 -13.40 3.20 -14.65 3.30 -1.35 0.05 -4.70 -0.55 -8.15 -1.45z"/>
  <path d="M231.50 147.45 c-2.05 -0.55 -4.60 -1.20 -5.60 -1.50 -1.75 -0.45 -1.90 -0.65 -1.90 -2.20 0 -0.95 0.15 -1.75 0.30 -1.75 0.15 0 5.95 -1.55 12.90 -3.50 6.90 -1.90 13.60 -3.50 14.80 -3.50 1.25 0 5.10 0.70 8.65 1.60 l6.35 1.65 0 1.60 c0 0.90 -0.10 1.65 -0.20 1.65 -0.15 0 -6 1.60 -13 3.50 -14.20 3.90 -16 4.10 -22.30 2.45z"/>
  <path d="M294.40 142.65 l-4.90 -1.25 0 -1.85 0 -1.80 11.90 -3.15 c7.55 -2 12.80 -3.10 14.50 -3.10 1.45 0 5 0.60 7.90 1.30 l5.25 1.35 -0.15 1.75 -0.15 1.80 -11.50 3.15 c-13.25 3.60 -15.30 3.75 -22.85 1.80z"/>
  <path d="M358.40 139.10 l-6.90 -1.75 0 -1.65 c0 -1.55 0.15 -1.70 2.15 -2.25 1.15 -0.30 6.15 -1.65 11.10 -3 10.50 -2.85 12.60 -3 19.60 -1.15 2.70 0.70 5.75 1.50 6.80 1.75 1.65 0.45 1.85 0.65 1.85 2.10 l0 1.60 -12.40 3.15 c-6.80 1.70 -13 3.10 -13.85 3.05 -0.80 0 -4.60 -0.85 -8.35 -1.85z"/>
  <path d="M269.25 136.25 l-6 -1.55 -0.15 -1.75 -0.15 -1.70 12.40 -3.40 c6.80 -1.85 13.10 -3.40 13.90 -3.40 0.85 0.05 4.50 0.75 8.15 1.65 l6.60 1.60 0 1.85 0 1.80 -12.20 3.30 c-7.35 2.05 -13.05 3.30 -14.35 3.30 -1.20 -0.05 -4.90 -0.80 -8.20 -1.70z"/>
  <path d="M332.50 132.55 l-5.25 -1.35 -0.15 -1.75 -0.15 -1.75 11.40 -3.10 c6.25 -1.70 12.35 -3.10 13.50 -3.10 1.20 0 3.75 0.45 5.75 0.95 2 0.55 4.60 1.25 5.80 1.55 1.90 0.50 2.10 0.65 2.10 2.15 l0 1.60 -11.90 3.15 c-6.50 1.75 -12.75 3.10 -13.85 3.10 -1.10 -0.05 -4.35 -0.70 -7.25 -1.45z"/>
  <path d="M396.25 129.75 c-3.30 -0.85 -6.60 -1.75 -7.35 -1.95 -1.15 -0.25 -1.40 -0.60 -1.40 -1.95 l0 -1.60 11.65 -3.15 c6.35 -1.70 12.40 -3.15 13.35 -3.10 0.95 0 5.30 0.85 9.60 1.85 l7.90 1.90 0 1.60 c0 0.85 -0.15 1.70 -0.35 1.80 -1.05 0.65 -24.45 6.35 -25.85 6.30 -0.85 -0.05 -4.25 -0.80 -7.55 -1.70z"/>
  <path d="M306.40 125.85 l-5.90 -1.55 0 -1.75 0 -1.80 11.65 -3.15 c6.35 -1.70 12.20 -3.10 12.90 -3.10 0.75 0 4.35 0.75 8 1.70 l6.70 1.70 0.15 1.80 c0.20 2 1.65 1.40 -13.35 5.55 -9.90 2.70 -12 2.75 -20.15 0.60z"/>
  <path d="M368.15 122.60 l-5.15 -1.30 0 -1.90 c0 -1.35 0.20 -1.90 0.75 -1.90 0.40 0 5.25 -1.25 10.75 -2.75 10.95 -3 13.90 -3.30 19.20 -1.95 7.40 1.85 6.80 1.55 6.80 3.60 l0 1.85 -10.90 2.90 c-12.45 3.30 -13.85 3.40 -21.45 1.45z"/>
  <path d="M342.65 116.10 l-6.65 -1.75 0 -1.65 c0 -1.60 0.15 -1.70 2.65 -2.40 1.40 -0.40 6.20 -1.80 10.60 -3.05 4.50 -1.25 9.05 -2.25 10.40 -2.25 1.35 0 4.70 0.55 7.50 1.30 9.65 2.40 8.85 2.05 8.85 3.85 l0 1.60 -11.60 3.15 c-6.40 1.75 -12.45 3.10 -13.40 3.05 -0.95 -0.05 -4.75 -0.85 -8.35 -1.85z"/>
  <path d="M585.75 736.45 c-9.95 -1.25 -19.30 -5.50 -27.75 -12.50 -2.60 -2.15 -3 -2.70 -3 -4.20 0 -1.60 0.10 -1.75 1.55 -1.75 0.85 0 2.45 0.65 3.70 1.50 3.90 2.65 10.20 5.40 15.10 6.55 8.10 1.85 16.10 0.90 24.45 -3.05 18.35 -8.55 33.05 -30.15 39.20 -57.50 2.15 -9.60 3 -17.70 3 -28.40 0.05 -34.70 -14.15 -67.25 -35.50 -81.55 -7.75 -5.20 -15.30 -7.65 -23.50 -7.65 -6.10 0 -11.20 1.30 -17.85 4.60 -2.80 1.35 -5.75 2.50 -6.60 2.50 -1.40 0 -1.55 -0.15 -1.55 -1.60 0.05 -1.45 0.45 -1.95 3.15 -3.95 6.30 -4.65 12.35 -7.65 19.25 -9.55 3.20 -0.90 5.30 -1.10 12.60 -1.10 7.60 -0.05 9.30 0.10 13 1.10 17.30 4.65 32.10 18.25 42.45 39.15 16.40 33 17.05 79.75 1.60 113.90 -4.85 10.70 -10.45 18.95 -18.05 26.60 -10.15 10.20 -20.55 15.50 -33.25 16.95 -5.10 0.55 -7.05 0.55 -12 -0.05z"/>
  <path d="M577.75 722.70 c-0.55 -0.10 -2.20 -0.45 -3.70 -0.75 -1.50 -0.30 -3.70 -1 -4.90 -1.50 l-2.15 -0.90 0 -5.40 c0 -11.25 2.15 -31.05 4.65 -43.40 l1.15 -5.50 1.65 -0.15 c1.15 -0.10 2.20 0.20 3.45 1.10 1.05 0.65 2.45 1.40 3.15 1.55 1.30 0.30 1.30 0.40 1.65 6.40 0.70 12.85 3.50 26.90 7.75 38.80 2.40 6.65 2.60 8.75 0.95 9.25 -1.45 0.45 -12.30 0.85 -13.65 0.50z"/>
  <path d="M600.45 714.90 c-2.80 -4.45 -8.65 -17.50 -10.90 -24.15 -2.55 -7.70 -5.05 -17.90 -5.05 -20.70 0 -1.15 0.25 -1.55 0.90 -1.55 0.45 0 2.05 -0.55 3.50 -1.25 3.35 -1.55 5.90 -1.65 6.35 -0.25 0.50 1.55 5.90 9.45 8.70 12.75 4.10 4.75 9.40 9.10 16.45 13.45 3 1.85 2.95 3.75 -0.25 8.25 -2.80 3.95 -9.45 10.95 -12.70 13.35 -3.20 2.35 -5.55 2.35 -7 0.10z"/>
  <path d="M551.30 707.75 c-3.65 -4.20 -7.45 -9.60 -9.60 -13.75 -1.15 -2.25 -1.40 -3.40 -1.45 -6.25 0 -3.20 0.20 -3.85 2.15 -7.50 4.75 -8.80 12 -18.60 19.05 -25.85 2.20 -2.35 3.10 -2.90 4.35 -2.90 1.50 0 1.70 0.25 3.90 4.75 1.30 2.65 2.30 5.40 2.30 6.35 0 0.90 -1.15 4.80 -2.55 8.60 -4.50 12.30 -9.55 30.35 -10.70 37.95 -0.35 2.35 -0.40 2.35 -2.25 2.35 -1.75 0 -2.20 -0.30 -5.20 -3.75z"/>
  <path d="M619.70 684.30 c-8.15 -3.45 -14.55 -8.10 -20.30 -14.70 -3.15 -3.60 -3.40 -4 -3.40 -6.20 0 -1.30 0.20 -2.45 0.45 -2.65 0.30 -0.15 1.20 -1.50 2.05 -3 1.45 -2.50 1.70 -2.75 3.35 -2.75 1.15 0 2.80 0.60 4.60 1.70 6.95 4.20 14.95 6.40 23.20 6.45 l5.35 0 0 1.70 c0 2.85 -2.75 12.45 -5.55 19.55 -0.65 1.50 -0.80 1.60 -3.20 1.60 -1.70 -0.05 -3.80 -0.60 -6.55 -1.70z"/>
  <path d="M533 672.90 c-0.30 -1.20 -0.75 -2.80 -1 -3.65 -0.95 -2.90 -2.95 -16.15 -3.30 -21.35 l-0.35 -5.25 1.45 -0.30 c0.80 -0.15 5.25 -1.05 9.90 -2.05 8.20 -1.70 19.45 -3.30 23.60 -3.30 l2.05 0 0.30 3.65 c0.15 1.95 0.45 4.75 0.65 6.10 l0.30 2.50 -5.20 3.55 c-7.15 4.95 -13.85 10.70 -19.75 16.95 -4.25 4.45 -5.25 5.25 -6.55 5.25 -1.40 0 -1.60 -0.20 -2.10 -2.10z"/>
  <path d="M579.75 663.55 c-4.10 -1.85 -7.90 -7.60 -9.60 -14.40 -1.20 -4.80 -1.15 -16.70 0.05 -21.05 1.90 -7 5.25 -12.05 9.40 -14.15 2.75 -1.40 8.80 -1.35 11.80 0.20 4.30 2.10 7.75 7.85 9.40 15.50 0.95 4.50 0.90 13.40 -0.10 18.25 -1.45 7.30 -5.45 13.60 -9.95 15.65 -2.70 1.25 -8.30 1.25 -11 0z m8.25 -7.35 c3.80 -3.45 6 -9.95 6 -17.70 0 -7.35 -2 -13.35 -5.65 -16.90 -2.85 -2.75 -3.85 -2.85 -6.35 -0.75 -3.80 3.15 -6 8.80 -6.35 16.15 -0.40 8.40 2.05 16.05 6.30 19.55 2.35 1.90 3.60 1.85 6.05 -0.35z"/>
  <path d="M610.25 655.25 c-1.65 -0.35 -4.10 -1.10 -5.50 -1.60 l-2.50 -0.95 0.05 -2.45 c0 -1.40 0.25 -4.35 0.45 -6.60 l0.40 -4.10 2.30 -0.30 c10.95 -1.30 17.85 -4.35 25.05 -11.10 3.05 -2.85 4.20 -3.65 5.40 -3.65 l1.50 0 0.40 3.90 c0.35 4.10 -0.05 22.10 -0.60 23.95 -0.25 0.85 -1.15 1.30 -4.35 2.20 -5.10 1.45 -17.75 1.80 -22.60 0.70z"/>
  <path d="M603.30 637.20 c-0.15 -0.45 -0.30 -1.60 -0.30 -2.60 0 -1 -0.45 -3.70 -1 -6 -0.55 -2.30 -1 -4.60 -1 -5.20 0 -0.55 1.20 -2.35 2.70 -4 7.70 -8.50 13.75 -20.90 16.05 -32.90 0.45 -2.35 0.90 -4.75 1.05 -5.35 0.15 -0.95 0.55 -1.15 1.95 -1.15 1.70 0 1.80 0.15 3.95 4.40 2.70 5.35 5.45 13.55 6.30 18.45 1.05 6.30 -1.05 14.55 -5.30 20.90 -2.20 3.35 -7.75 8.65 -10.90 10.40 -5.80 3.25 -12.80 4.85 -13.50 3.05z"/>
  <path d="M557.75 634.65 c-2.45 -0.35 -10 -0.85 -16.75 -1.05 l-12.25 -0.35 0.15 -5.75 c0.10 -5.40 1.30 -14.25 2.75 -20.50 l0.60 -2.75 2.35 -0.15 c5.15 -0.35 19.45 5.60 28.80 11.90 l4.85 3.30 -0.05 2.45 c0 1.40 -0.55 4.55 -1.15 7 -0.65 2.50 -1.25 5 -1.35 5.65 -0.25 1.30 -1.10 1.35 -7.95 0.25z"/>
  <path d="M597.95 618.65 c-0.65 -1 -2.10 -2.95 -3.30 -4.25 -2.45 -2.80 -2.50 -3.25 -1.15 -9 2.75 -11.75 3.20 -29.75 1.05 -41.65 -0.55 -3 -1.05 -6.45 -1.05 -7.60 0 -2.10 0.05 -2.15 1.70 -2.15 2.40 0 9.50 3.70 12.30 6.45 2.20 2.10 2.45 2.65 3.45 6.90 3.70 15.85 2.10 32.25 -4.45 45.70 -3.20 6.60 -3.85 7.45 -5.75 7.45 -1.40 0 -1.85 -0.30 -2.80 -1.85z"/>
  <path d="M565 614.70 c-6.95 -7.05 -15.30 -13.15 -24.15 -17.70 l-4.40 -2.25 0.20 -2.25 c0.20 -2.45 4.45 -11.45 7.75 -16.40 1.65 -2.50 2.10 -2.85 3.70 -3 1.50 -0.15 2.50 0.30 5.25 2.10 9.85 6.50 17.75 15.50 23.40 26.85 3.05 6 3.05 7.70 0.05 9.90 -1.20 0.90 -2.95 2.65 -3.85 3.85 -2.45 3.30 -3.85 3.10 -7.95 -1.10z"/>
  <path d="M584.50 609.15 c-1.50 -0.10 -2.90 -0.40 -3.15 -0.60 -0.20 -0.20 -0.95 -2.35 -1.65 -4.75 -3.55 -12.35 -10.25 -23.50 -19.80 -32.90 -6.15 -6.10 -6.30 -6.80 -2 -10.05 7.05 -5.35 13.35 -8.05 20.35 -8.65 2.70 -0.25 3.65 -0.15 4.10 0.35 1.70 2.15 6.55 17.80 7.90 25.70 1.20 6.90 1.95 19.80 1.55 25.90 l-0.40 5.35 -2.05 -0.10 c-1.15 -0.05 -3.35 -0.15 -4.85 -0.25z"/>
  <path d="M584.40 531.95 c-5.10 -0.75 -9.05 -2 -14.15 -4.40 -5.95 -2.90 -10.60 -6.10 -15.85 -11.05 -3.40 -3.10 -3.90 -3.80 -3.90 -5.30 0 -1.60 0.10 -1.70 1.65 -1.70 1.25 0 2.35 0.60 4.45 2.40 9.15 7.70 21.70 11.95 31.45 10.60 24.80 -3.40 45.10 -28.10 52.50 -64 8.40 -40.55 -5.05 -86.50 -30.80 -105.65 -16.70 -12.40 -34.65 -12.35 -51.25 0.10 -1.90 1.45 -3.20 2.05 -4.35 2.05 -1.55 0 -1.65 -0.10 -1.65 -1.65 0 -1.40 0.55 -2.05 4.05 -5.10 10 -8.70 19.20 -12.75 31.20 -13.75 10.80 -0.95 18.70 0.65 28.35 5.65 20.55 10.60 36.95 37.25 42.10 68.35 2.05 12.45 2.50 29.25 1.10 41.55 -4.55 40 -25 71.80 -51.55 80.10 -7 2.20 -16 2.90 -23.35 1.80z"/>
  <path d="M575 517.70 c-1.50 -0.40 -3.70 -1.05 -4.85 -1.50 l-2.15 -0.80 0 -6.30 c0 -11.05 1.70 -26.90 4.35 -40.95 l1.35 -7.15 1.95 0 c1.15 0 2.50 0.40 3.40 1 0.75 0.60 2.05 1.25 2.85 1.55 l1.45 0.50 0.35 6.35 c0.65 12.35 4 28.55 8 39 1 2.60 1.80 5.55 1.80 6.60 0 1.75 -0.10 1.90 -1.85 2.20 -3.45 0.55 -13.80 0.25 -16.65 -0.50z"/>
  <path d="M601.25 510.20 c-2.85 -4.90 -6.75 -12.90 -8.70 -17.95 -3.45 -8.90 -7.40 -24.05 -6.95 -26.75 0.20 -1.25 4.30 -3 7.90 -3.35 l2.25 -0.20 1.95 3.40 c5.45 9.45 14.05 18.10 23.20 23.25 2.35 1.35 2.60 1.65 2.60 3.25 0 4.75 -14.90 20.65 -19.30 20.65 -1.40 0 -1.80 -0.35 -2.95 -2.30z"/>
  <path d="M552.30 503.45 c-3.65 -3.95 -6.80 -8.50 -9.35 -13.45 -1.45 -2.80 -1.70 -3.75 -1.70 -6.75 0.05 -3 0.25 -3.90 1.70 -6.50 6 -10.75 9.70 -15.85 18.50 -25.65 3.45 -3.80 3.90 -4.15 5.45 -4 1.50 0.15 1.75 0.40 2.85 3.15 0.70 1.65 1.70 3.60 2.25 4.35 1.50 2.05 1.25 4.70 -0.95 10.50 -4.30 11.35 -10.15 31.80 -11.30 39.55 -0.35 2.35 -0.40 2.35 -2.25 2.35 -1.70 0 -2.25 -0.35 -5.20 -3.55z"/>
  <path d="M624.25 481.40 c-10.20 -3.65 -19.70 -10.30 -25.70 -18.10 -2.40 -3.05 -2.60 -4.75 -0.85 -7 0.65 -0.85 1.65 -2.50 2.25 -3.65 1.40 -2.85 2.95 -2.85 7.40 -0.15 6.55 3.95 13.80 6 22.60 6.35 l6.20 0.30 -0.30 2.55 c-0.35 3 -2.20 9.60 -4.50 15.70 l-1.60 4.35 -2 0.10 c-1.10 0.05 -2.65 -0.15 -3.50 -0.45z"/>
  <path d="M534.05 468.90 c-1.85 -5.90 -3.85 -17.45 -4.35 -25.05 l-0.35 -5.30 1.45 -0.35 c0.80 -0.15 3.15 -0.70 5.20 -1.20 7 -1.75 17.95 -3.50 26.65 -4.25 l3.85 -0.35 0 1.65 c0 0.95 0.15 3.85 0.30 6.45 l0.35 4.75 -3.70 2.50 c-7.95 5.40 -17.45 13.65 -23.35 20.40 -1.75 1.95 -2.40 2.35 -3.80 2.35 -1.50 0 -1.80 -0.20 -2.25 -1.60z"/>
  <path d="M581.90 459.75 c-4.55 -1.50 -8.70 -7.15 -10.75 -14.75 -1.25 -4.55 -1.20 -16.95 0.05 -21.45 2.65 -9.60 7.95 -15.05 14.75 -15.05 4.35 0 6.50 0.90 9.60 4.05 5 5.05 7.35 13.40 6.80 24.35 -0.55 10.90 -3.85 18.50 -9.60 21.85 -2.75 1.65 -7.50 2.05 -10.85 1z m5.80 -6.70 c5.75 -3.55 9.05 -16.50 6.65 -25.90 -1.60 -6.15 -4.95 -11.15 -8 -11.90 -3.85 -1 -8.75 7 -9.85 16 -0.95 8.10 2.55 18.75 7.15 21.70 2 1.25 2.10 1.30 4.05 0.10z"/>
  <path d="M614.25 451.45 c-1.65 -0.20 -4.85 -0.95 -7.10 -1.70 l-4.15 -1.30 0 -1.95 c0 -1.05 0.20 -3.05 0.45 -4.35 0.30 -1.30 0.60 -3.45 0.80 -4.70 l0.30 -2.30 3.35 -0.35 c9.60 -1 19.65 -5.95 25.50 -12.60 1.55 -1.70 2.35 -2.20 3.50 -2.20 l1.50 0 0.40 4.40 c0.40 4.80 0 22.35 -0.55 23.70 -0.45 1.10 -5.25 2.65 -10.50 3.35 -4.30 0.60 -9.05 0.60 -13.50 0z"/>
  <path d="M604.25 431.65 c-0.15 -1.35 -0.70 -4.30 -1.25 -6.65 -0.55 -2.35 -1 -4.85 -1 -5.50 0 -0.70 1 -2.30 2.45 -3.95 3.40 -3.95 7.70 -10.40 10.10 -15.15 2.65 -5.25 5.70 -14.60 6.45 -19.65 0.85 -5.40 0.75 -5.25 2.65 -5.25 1.65 0 1.75 0.15 4.05 4.80 5.55 11.20 7.50 21.25 5.60 28.70 -2.50 9.70 -8.90 17.55 -18.05 22.15 -2.90 1.40 -7.60 2.85 -9.40 2.85 -1.15 0 -1.30 -0.25 -1.60 -2.35z"/>
  <path d="M557.25 430.25 c-2.75 -0.40 -10.15 -0.85 -16.45 -1.05 l-11.45 -0.35 0.35 -5.55 c0.45 -7.55 2.05 -17.90 3.40 -22.25 0.50 -1.65 0.55 -1.70 3.10 -1.40 3.50 0.35 12.60 3.50 18.05 6.20 2.50 1.20 6.90 3.80 9.90 5.80 5.20 3.50 5.35 3.60 5.35 5.45 0 1.05 -0.45 3.30 -1 5 -0.50 1.75 -1.20 4.45 -1.50 6.05 l-0.55 2.85 -2.10 -0.05 c-1.15 -0.05 -4.35 -0.35 -7.10 -0.70z"/>
  <path d="M598.70 414.15 c-0.60 -1.05 -2.05 -2.95 -3.20 -4.30 -2.40 -2.70 -2.40 -2.45 -0.60 -11.10 1.80 -8.65 2.25 -14.80 1.95 -24.75 -0.20 -5.10 -0.70 -11.05 -1.10 -13.25 -0.45 -2.20 -0.95 -5.50 -1.10 -7.35 l-0.30 -3.40 2.05 0 c2.50 0 9.15 3.30 12.05 5.95 2.15 2 3.10 4.45 4.30 11.30 2.80 16.05 0 33.45 -7.40 45.75 -1.50 2.50 -1.80 2.75 -3.65 2.90 -1.80 0.10 -2.05 0 -3 -1.75z"/>
  <path d="M567 411.55 c-4.10 -5.05 -15.60 -13.80 -24.05 -18.25 -5.45 -2.85 -5.45 -2.90 -5.45 -4.70 0 -2.10 3.70 -10.10 7.30 -15.90 2.30 -3.65 2.30 -3.70 4.45 -3.70 3.05 0 8.60 3.80 15.25 10.45 5.95 5.95 9.20 10.50 12.95 17.85 3.05 6.05 3.35 8.60 1.25 9.75 -0.75 0.35 -2.50 2 -3.95 3.55 -2.25 2.50 -2.85 2.90 -4.40 2.90 -1.50 0 -2.05 -0.35 -3.35 -1.95z"/>
  <path d="M587.75 405 c-0.55 -0.25 -2.05 -0.45 -3.35 -0.45 -2.35 -0.05 -2.35 -0.05 -2.90 -2.15 -3.30 -13.10 -10.10 -25 -19.85 -34.90 -6.95 -7 -7.05 -7.40 -2.40 -11.15 3.55 -2.85 10.80 -6.55 15 -7.60 1.60 -0.40 4.35 -0.75 6.05 -0.75 l3.05 0 2.15 5.35 c5.30 13.60 8.25 32.40 7.25 46.80 l-0.35 5.35 -1.80 -0.05 c-1.05 0 -2.30 -0.20 -2.85 -0.45z"/>
  <path d="M582.65 329.80 c-4.95 -0.95 -8.15 -2.10 -13.40 -4.70 -5.60 -2.80 -9.65 -5.65 -14.75 -10.45 -3.50 -3.25 -4 -4 -4 -5.45 0 -1.55 0.10 -1.70 1.55 -1.70 1.05 0 2.45 0.75 4.85 2.65 9.40 7.45 17.50 10.55 27.60 10.55 5.30 0 6.20 -0.15 11.15 -1.85 3 -1 6.95 -2.75 8.85 -3.85 27.90 -16.30 44 -61.65 36.95 -104 -3.80 -22.75 -12.40 -41.40 -24.90 -54 -8.05 -8.10 -16.30 -12.80 -26.05 -14.80 -9.50 -1.90 -20.35 0.75 -30.10 7.35 -1.75 1.20 -3.40 1.95 -4.35 1.95 -1.40 0 -1.55 -0.15 -1.55 -1.65 0 -1.90 1.20 -3.20 6.50 -7.20 10.20 -7.65 23.70 -11.45 36 -10.15 13.20 1.35 23.65 6.55 34 17 6.30 6.30 10.85 12.60 15.20 21 7.45 14.45 11.65 29.05 13.35 46.65 0.75 8.15 0.35 27.45 -0.80 35.35 -4.15 28.85 -17.20 54.05 -35 67.40 -4.55 3.40 -13.45 7.80 -18.50 9.15 -5.15 1.35 -17.25 1.75 -22.60 0.75z"/>
  <path d="M580.50 316.70 c-3.10 -0.35 -7.20 -1.30 -9.85 -2.30 l-2.65 -0.95 0 -4.65 c0 -11.60 1.85 -29.85 4.35 -42.65 l1.40 -7.15 1.60 0 c0.90 0 2.70 0.55 4 1.25 1.35 0.65 2.80 1.35 3.30 1.45 0.70 0.25 0.85 0.85 0.85 3.90 0 11.30 3.85 30.65 8.50 42.70 0.80 2.15 1.50 4.75 1.50 5.75 0 1.70 -0.10 1.85 -1.85 2.10 -2.95 0.45 -9.20 0.75 -11.15 0.55z"/>
  <path d="M601.90 309.40 c-3.90 -6.05 -9.45 -18.45 -12.15 -27.15 -2.10 -6.70 -4.25 -15.85 -4.25 -18.10 0 -1.50 0.15 -1.65 2.70 -2.35 1.50 -0.45 2.90 -1.05 3.05 -1.30 0.15 -0.30 1.25 -0.50 2.45 -0.50 1.85 0 2.20 0.20 2.75 1.40 0.35 0.75 1.85 3.20 3.35 5.40 5 7.60 13.30 15.50 20.45 19.45 3.10 1.75 3.25 1.90 3.25 3.75 0 1.45 -0.50 2.60 -2.30 5.05 -6.20 8.45 -13.85 15.45 -16.95 15.45 -1.15 0 -1.85 -0.35 -2.35 -1.10z"/>
  <path d="M552.60 301.80 c-3.60 -3.90 -6.85 -8.35 -9.40 -13.05 -1.70 -3.10 -1.90 -3.85 -1.90 -7 0 -3.10 0.20 -3.95 1.90 -7.25 4.35 -8.45 11.05 -17.65 18.25 -25.10 3.10 -3.30 4 -3.90 5.35 -3.90 1.50 0 1.70 0.25 3.90 4.65 2.75 5.55 2.85 6.90 0.80 11.85 -3.65 8.80 -10.55 32.75 -11.80 40.90 -0.30 2.05 -0.40 2.10 -2.20 2.10 -1.65 0 -2.25 -0.35 -4.90 -3.20z"/>
  <path d="M621.60 278.55 c-7.20 -2.85 -14.25 -7.70 -19.85 -13.60 -5.60 -5.90 -6.25 -7.65 -4.05 -10.60 0.65 -0.90 1.65 -2.55 2.25 -3.70 0.90 -1.85 1.30 -2.15 2.60 -2.15 0.85 0 2.15 0.40 2.85 0.95 6.45 4.50 17 7.65 25.80 7.60 l4.95 0 -0.30 2.60 c-0.30 3.20 -2.35 10.45 -4.50 15.95 l-1.65 4.15 -2.20 0.10 c-1.55 0.10 -3.40 -0.35 -5.90 -1.30z"/>
  <path d="M533.80 265.90 c-2.05 -7.10 -3.50 -15.75 -4.10 -24.20 l-0.30 -5.10 5.40 -1.25 c10.35 -2.45 22.90 -4.35 28.75 -4.35 l2.80 0 0.35 4.60 c0.55 8.30 0.95 7.40 -4.55 11.20 -6.80 4.65 -11.40 8.60 -18.35 15.65 -5.25 5.30 -6.15 6.05 -7.60 6.05 -1.60 0 -1.70 -0.15 -2.40 -2.60z"/>
  <path d="M582.70 258.05 c-5.20 -1.35 -9.40 -6.75 -11.50 -14.80 -1.20 -4.70 -1.25 -16.50 -0.05 -21.40 1.55 -6.35 4.80 -11.40 8.75 -13.75 2.10 -1.20 2.85 -1.35 6.45 -1.30 3.45 0.05 4.40 0.25 6.30 1.35 3.90 2.30 6.90 6.95 8.65 13.40 1.25 4.60 1.30 17.40 0 21.90 -1.75 6.45 -4.80 11.10 -8.55 13.30 -2.35 1.40 -7.30 2 -10.05 1.30z m5.35 -7.20 c3.25 -2.20 5.95 -8 6.95 -14.95 1.25 -8.65 -2.90 -20.30 -7.95 -22.35 -4.90 -2.05 -10.70 8.25 -10.70 18.95 0 7.50 2.95 15.25 6.85 18.10 2.35 1.70 2.70 1.70 4.85 0.25z"/>
  <path d="M612.75 249.25 c-1.90 -0.35 -4.85 -1.10 -6.50 -1.70 -1.60 -0.55 -3.05 -1.05 -3.10 -1.05 -0.35 0 -0.10 -4.10 0.30 -6.35 0.30 -1.30 0.60 -3.45 0.80 -4.70 l0.30 -2.30 3.75 -0.30 c8.30 -0.75 18.70 -5.75 24.35 -11.80 1.95 -2.10 2.70 -2.55 4.10 -2.55 l1.65 0 0.35 4.35 c0.40 4.80 -0.10 21.65 -0.70 23.25 -1.10 2.95 -16.25 4.85 -25.30 3.15z"/>
  <path d="M604.05 228 c-0.35 -2.25 -0.95 -5.10 -1.35 -6.40 -1.20 -4 -1 -4.75 2.35 -8.75 9 -10.70 15.45 -25.30 16.55 -37.60 0.15 -1.35 0.35 -1.50 1.95 -1.65 l1.75 -0.15 2.80 5.90 c4.05 8.50 5.45 13.25 5.75 19.75 0.25 4.80 0.15 5.80 -1 9.50 -2.70 8.60 -8.65 15.90 -16.10 19.75 -4.25 2.20 -8.55 3.65 -10.80 3.65 -1.30 0 -1.35 -0.15 -1.90 -4z"/>
  <path d="M556.25 228.20 c-2.75 -0.35 -9.90 -0.80 -15.95 -1 l-10.95 -0.35 0.35 -5.80 c0.45 -7.35 1.70 -15.45 3.35 -21.75 l0.50 -1.95 2.35 0.30 c6.90 0.80 21.75 7.25 29.35 12.75 l4 2.90 -0.10 2.45 c0 1.40 -0.55 4.40 -1.15 6.75 -0.60 2.35 -1.20 4.75 -1.30 5.40 -0.20 1 -0.50 1.10 -2.85 1.05 -1.40 -0.05 -4.85 -0.40 -7.60 -0.75z"/>
  <path d="M598.85 212.40 c-0.70 -1.20 -2.20 -3.25 -3.40 -4.60 l-2.15 -2.40 0.60 -3.10 c0.30 -1.65 1 -5.50 1.60 -8.55 2.05 -11.10 2.05 -24.35 0 -36.35 -0.55 -3.20 -1 -6.60 -1 -7.60 0 -1.75 0.05 -1.80 1.75 -1.80 1.85 0 7.40 2.55 11.10 5.05 2.65 1.85 3.85 4.40 5.15 11.20 1.35 7.10 1.50 19.90 0.30 26.25 -1.20 6.35 -3.65 13.40 -6.55 18.85 -2.45 4.70 -2.65 4.90 -4.35 5.05 -1.60 0.15 -1.90 -0.05 -3.05 -2z"/>
  <path d="M564.75 207.45 c-7 -7 -15.60 -13.20 -23.85 -17.10 -3.30 -1.55 -3.40 -1.65 -3.40 -3.50 0 -2.25 3.40 -9.80 7.15 -15.70 2.55 -4.05 2.60 -4.15 4.60 -4.15 4.45 0 16.90 10.65 23.15 19.80 4.05 6.05 7.60 13.35 7.60 15.75 0 1.55 -0.25 2 -1.65 2.85 -0.95 0.50 -2.65 2.10 -3.90 3.55 -1.85 2.15 -2.45 2.55 -3.95 2.55 -1.55 0 -2.30 -0.50 -5.75 -4.05z"/>
  <path d="M587.50 203 c-0.70 -0.20 -2.20 -0.40 -3.35 -0.45 -2.05 -0.05 -2.15 -0.10 -2.65 -2.15 -3.20 -12.70 -10.10 -24.90 -19.55 -34.60 -4.90 -5 -5.45 -5.75 -5.45 -7.40 0 -1.60 0.30 -2.05 2.90 -4.10 5.80 -4.65 15.10 -8.30 21.20 -8.30 l2.75 0 1.80 4.65 c4.65 12.20 6.70 22.15 7.35 35.35 0.25 5.10 0.30 11.10 0.15 13.35 l-0.30 4.15 -1.80 -0.05 c-1 -0.05 -2.35 -0.25 -3.05 -0.45z"/>
  <path d="M519.05 80.85 c-8.80 -2.45 -11.35 -3.35 -11.90 -4.15 -0.60 -0.90 -0.65 -3.40 -0.35 -15.15 l0.35 -14.05 2.20 0 c1.75 0 2.15 -0.15 2.15 -0.90 0 -1.40 1.05 -2.10 3.15 -2.10 2.05 0 24.15 7.20 25.25 8.20 0.50 0.50 0.55 3.40 0.20 14.10 -0.20 7.40 -0.55 13.75 -0.75 14.10 -0.25 0.30 -1.40 0.60 -2.65 0.60 -2 0 -2.20 0.10 -2.20 1.25 0 1.15 -0.20 1.25 -2.10 1.20 -1.20 0 -7.20 -1.40 -13.35 -3.10z"/>
 </g>
 <g fill="#262930" stroke="#262930" stroke-width="0.5">
  <path d="M466.50 811 c-3.65 -0.60 -12.05 -1.70 -75.25 -10.30 -29.40 -3.95 -67.55 -9.15 -84.75 -11.45 -17.20 -2.35 -39.55 -5.40 -49.75 -6.75 -22.60 -3.10 -44.95 -6.10 -57 -7.75 -4.95 -0.70 -17.45 -2.35 -27.75 -3.75 -10.30 -1.40 -24.35 -3.30 -31.25 -4.25 -6.85 -0.95 -22.60 -3.05 -35 -4.75 -12.35 -1.65 -23.95 -3.25 -25.75 -3.50 -1.80 -0.25 -15.05 -2.05 -29.50 -4 -14.45 -1.95 -27.90 -3.75 -29.90 -4.05 l-3.60 -0.60 0.10 -293.50 0.15 -293.55 15.25 -4.95 c16.90 -5.45 36.25 -11.70 73.75 -23.85 30.10 -9.75 57.25 -18.55 69.50 -22.50 11.15 -3.65 43.15 -13.95 50.25 -16.25 2.90 -0.90 10.20 -3.30 16.25 -5.25 6.05 -2 19 -6.20 28.75 -9.35 9.75 -3.15 28.55 -9.20 41.75 -13.50 13.20 -4.25 31.30 -10.10 40.25 -13 17.50 -5.65 45.80 -14.80 61.50 -19.90 30.25 -9.90 56.35 -18.25 56.90 -18.25 0.45 0 0.55 87.15 0.50 397.60 l-0.15 397.65 -1.25 0.05 c-0.70 0.05 -2.50 -0.10 -4 -0.30z m-39 -111.70 l0 -76.20 -8.85 -0.30 c-4.90 -0.20 -10.25 -0.45 -11.90 -0.55 -1.65 -0.15 -8.95 -0.45 -16.25 -0.75 -19 -0.70 -25.20 -1 -30 -1.25 -2.35 -0.15 -9.65 -0.50 -16.25 -0.75 -29.55 -1.20 -42.50 -1.75 -58.50 -2.50 -14.35 -0.70 -19.85 -0.95 -34.50 -1.50 -7.15 -0.25 -14.10 -0.60 -15.50 -0.75 -12.35 -1.15 -64.30 -1.20 -111.50 0 -5.50 0.15 -17.55 0.35 -26.75 0.50 -35.35 0.55 -57.90 1.15 -58.60 1.55 -0.45 0.30 -0.25 113 0.25 113.50 0.15 0.15 9.60 1.40 20.95 2.70 24.05 2.80 90.75 10.55 103.15 12 10.55 1.20 71.90 8.30 95.50 11.05 129 15.05 166.20 19.35 167.40 19.40 l1.35 0.05 0 -76.20z m-1 -92.75 l0 -5.95 -4.10 -0.30 c-2.30 -0.15 -7.20 -0.40 -10.90 -0.55 -6.50 -0.25 -10.05 -0.45 -19.75 -1 -2.45 -0.15 -7.65 -0.35 -11.50 -0.50 -3.85 -0.15 -8.90 -0.35 -11.25 -0.50 -4.85 -0.25 -13.45 -0.65 -24 -1 -4 -0.15 -8.80 -0.35 -10.75 -0.50 -1.90 -0.15 -6.65 -0.35 -10.50 -0.50 -3.85 -0.15 -8.80 -0.40 -11 -0.50 -6.65 -0.35 -14.85 -0.75 -27.50 -1.25 -6.60 -0.30 -13.70 -0.60 -15.75 -0.75 -2.05 -0.15 -7.25 -0.35 -11.50 -0.50 -4.25 -0.15 -8.75 -0.40 -10 -0.50 -1.25 -0.15 -8.45 -0.45 -16 -0.75 -7.55 -0.30 -14.85 -0.65 -16.25 -0.75 -1.35 -0.10 -4.15 -0.20 -6.15 -0.30 l-3.65 -0.10 0 5.55 c0 3.10 0 5.85 0.05 6.10 0 0.30 0.30 0.50 0.65 0.45 0.70 -0.15 18.10 0.50 21.35 0.80 1.25 0.10 7.75 0.45 14.50 0.75 6.75 0.25 14.30 0.60 16.75 0.75 7.40 0.40 24.55 1.20 31 1.50 6 0.25 11.55 0.50 21 1 5.20 0.25 32.95 1.55 42.50 2 3.05 0.10 12.60 0.55 21.25 0.95 8.65 0.45 21.40 1 28.25 1.30 6.90 0.30 12.95 0.65 13.50 0.70 0.55 0.10 2.95 0.20 5.40 0.25 l4.35 0.05 0 -5.95z m0 -63.30 l0 -44.25 -20.10 0 c-11.10 0.05 -49.85 -0.15 -86.15 -0.35 -36.30 -0.20 -70.70 -0.35 -76.50 -0.35 -5.75 0.05 -16.70 0.10 -24.25 0.15 l-13.80 0.05 0.05 8.40 0 8.35 -15.25 0 c-22.40 0 -92.20 -0.80 -92.60 -1.10 -0.25 -0.10 -0.40 8.85 -0.45 19.95 0 11.10 -0.05 24.30 -0.10 29.35 l-0.05 9.25 2.20 0.10 c1.25 0.05 5.85 0.25 10.25 0.40 4.40 0.20 12.30 0.55 17.50 0.80 5.25 0.25 15.15 0.70 22 1 6.90 0.30 14.75 0.60 17.50 0.75 2.75 0.15 7.70 0.35 11 0.50 3.30 0.15 7.80 0.35 10 0.50 2.20 0.15 7.60 0.35 12 0.55 4.40 0.15 9.40 0.35 11.10 0.45 1.70 0.10 7.65 0.35 13.25 0.50 5.60 0.20 10.50 0.40 10.90 0.50 0.40 0.10 4.70 0.30 9.50 0.50 4.80 0.15 10.10 0.40 11.75 0.50 1.65 0.15 8.65 0.50 15.50 0.75 12.35 0.50 18 0.75 28.25 1.25 2.90 0.15 7.30 0.35 9.75 0.50 2.50 0.10 7.75 0.35 11.75 0.50 4 0.15 8.70 0.40 10.50 0.50 1.80 0.10 6.50 0.35 10.50 0.50 7.50 0.30 13.90 0.60 20.75 1 2.20 0.10 7.60 0.35 12 0.55 4.40 0.15 9.20 0.35 10.70 0.45 1.45 0.10 9.55 0.45 18 0.75 8.40 0.30 15.75 0.60 16.30 0.70 0.55 0.10 2.20 0.20 3.65 0.25 l2.60 0.05 0 -44.25z m-0.75 -60.25 l1 0 -0.15 -155.85 c-0.05 -85.75 -0.20 -156.50 -0.25 -157.20 l-0.10 -1.30 -66.25 16.20 c-36.45 8.90 -66.35 16.35 -66.50 16.55 -0.15 0.20 -0.15 6.45 0 13.90 l0.25 13.50 24.50 -5.65 24.50 -5.65 2.90 0.75 c3.55 0.90 5.95 2.70 7.75 5.70 l1.35 2.30 0 72 0 72 -1.30 2.25 c-1.60 2.70 -2.50 3.55 -5.35 5 -2.30 1.20 -4.85 1.40 -27.10 2.20 -4.55 0.20 -9.50 0.40 -11 0.55 -1.50 0.15 -6 0.35 -10 0.50 -4 0.15 -14.45 0.60 -23.25 1 -8.80 0.40 -19.05 0.85 -22.75 1 -8.45 0.35 -15.80 0.70 -22.25 1 -8.10 0.45 -12.25 -1.45 -14.85 -6.65 l-1.15 -2.35 0 -60.75 0 -60.75 1.10 -2.05 c1.20 -2.30 4.10 -5 6.10 -5.75 1.20 -0.50 52.35 -12.45 53.20 -12.45 0.20 0 0.35 -6.20 0.35 -13.75 0 -8.35 -0.20 -13.75 -0.45 -13.75 -0.50 0 -67.35 16.25 -69.15 16.80 -0.85 0.25 -0.90 5.40 -0.90 98.95 0 54.30 -0.15 98.80 -0.35 98.90 -0.25 0.15 -5.90 0.40 -12.65 0.55 -6.75 0.20 -15.05 0.45 -18.50 0.55 -3.45 0.10 -19.20 0.55 -35 1 -15.80 0.40 -31.50 0.90 -34.85 1.05 l-6.15 0.30 0 28.90 0 28.90 23.65 0.30 c61.70 0.75 239.50 1.70 279.60 1.45 12.60 -0.10 23.40 -0.15 24 -0.15z m-248 -102.40 c1.10 -0.55 2.70 -1.75 3.60 -2.70 3.35 -3.50 3.15 1.05 3.20 -67.20 l0 -61.80 -1.30 -2.65 c-1.20 -2.45 -3 -4.30 -5.60 -5.65 -1.90 -1.05 -105.10 -18.20 -108 -17.95 -5.05 0.35 -9.95 5 -10.85 10.20 -0.15 1.05 -0.30 30.70 -0.30 65.95 0 70.60 -0.15 67.30 3.10 71 2.15 2.45 5.65 4.10 9.45 4.45 1.75 0.15 17.95 1.40 35.95 2.75 35.25 2.65 42.40 3.20 54.75 4.25 9.85 0.85 13.40 0.70 16 -0.65z m65 -7.35 c3.05 -0.15 10.55 -0.45 16.75 -0.75 6.20 -0.25 13.60 -0.60 16.50 -0.75 2.90 -0.15 8.20 -0.35 11.75 -0.50 3.60 -0.15 8.40 -0.35 10.75 -0.50 6.60 -0.35 17 -0.80 31.55 -1.45 9.80 -0.40 13.55 -0.75 14.15 -1.25 0.75 -0.60 0.80 -6.35 0.80 -69.75 0 -53.10 -0.15 -69.25 -0.60 -69.70 -0.35 -0.35 -1.05 -0.60 -1.60 -0.60 -1.05 0 -48.90 10.95 -49.20 11.25 -0.10 0.10 -0.15 3.75 -0.10 8.05 0.05 7.85 0.30 8.95 1.80 8.35 1.20 -0.45 8.45 0.90 11.10 2.10 9.95 4.55 17.30 15.70 20.70 31.35 1.45 6.80 1.55 20.75 0.25 27.65 -3 15.40 -9.35 26.65 -18.35 32.50 -5.40 3.50 -7.40 3.95 -17.25 3.75 -4.65 -0.05 -10.65 -0.15 -13.25 -0.20 -2.60 -0.05 -5.85 -0.15 -7.25 -0.20 l-2.45 -0.10 2.75 -2.85 c3.60 -3.70 5.50 -6.60 8.25 -12.35 7.30 -15.40 8.70 -39.45 3.45 -58.05 -2 -7.20 -6.70 -16.15 -10.55 -20.20 -1.75 -1.90 -3.20 -3.60 -3.20 -3.80 0 -0.20 1.60 -0.25 3.50 -0.15 l3.50 0.20 0 -6.10 0 -6.10 -1.85 0.45 c-1.40 0.30 -37.80 8.70 -46.50 10.70 -2.85 0.65 -2.65 -3.35 -2.65 60 0 53.40 0.05 58.25 0.85 59 0.70 0.70 1.55 0.80 5.85 0.55 2.80 -0.15 7.55 -0.40 10.55 -0.55z m-190.80 -5.45 c0.40 -0.50 0.50 -18.80 0.45 -68.60 l-0.15 -67.95 -1.20 -0.15 c-0.65 -0.10 -1.40 0.10 -1.60 0.50 -0.25 0.35 -0.45 31.20 -0.45 68.50 0 53.80 0.15 67.85 0.65 68.05 1.10 0.45 1.70 0.35 2.30 -0.35z m136.15 -182.40 c5.75 -1.45 10.40 -2.80 10.40 -2.95 0 -0.20 -1.95 -0.80 -4.35 -1.40 l-4.40 -1.10 -10.70 2.95 -10.75 2.95 4 0.85 c2.15 0.50 4.20 0.95 4.45 1.05 0.30 0.10 0.60 0.20 0.75 0.25 0.15 0 4.90 -1.15 10.60 -2.60z m-22.35 -5.25 c5.75 -1.55 10.70 -2.95 10.90 -3.15 0.25 -0.20 -2.30 -1.05 -5.60 -1.85 l-6 -1.50 -11.65 3.20 c-6.35 1.75 -11.65 3.25 -11.75 3.35 -0.20 0.15 11.20 2.65 12.60 2.75 0.50 0.05 5.70 -1.20 11.50 -2.80z m58.15 -3.90 c5.95 -1.55 10.90 -2.85 11 -3 0.25 -0.20 -3.60 -1.40 -7.40 -2.25 -2.65 -0.55 -3.05 -0.50 -13.70 2.45 -6 1.65 -11 3.10 -11.15 3.20 -0.30 0.30 7.30 2.25 9.05 2.30 0.75 0.05 6.25 -1.20 12.20 -2.70z m-83.65 -2.20 l12.50 -3.45 -2.50 -0.70 c-1.35 -0.45 -4.20 -1.15 -6.25 -1.65 l-3.75 -0.85 -10.95 3.05 c-6 1.65 -11.10 3.05 -11.35 3.05 -0.20 0 -1 0.25 -1.80 0.55 -1.30 0.55 -0.95 0.70 4.60 1.95 3.30 0.75 6.25 1.40 6.50 1.40 0.30 0.05 6.15 -1.50 13 -3.35z m60.45 -3.40 c5.80 -1.55 10.70 -2.95 10.95 -3.15 0.20 -0.20 -2.25 -1 -5.50 -1.85 l-5.85 -1.55 -11.35 3.05 c-6.30 1.70 -11.30 3.15 -11.15 3.30 0.25 0.30 10.55 2.90 11.65 3 0.40 0.05 5.45 -1.25 11.25 -2.80z m61.75 -4.30 c6.75 -1.75 12.05 -3.30 11.75 -3.45 -0.25 -0.15 -2.75 -0.85 -5.60 -1.60 l-5.10 -1.35 -11.40 3.05 c-16.90 4.55 -15.75 3.90 -9.85 5.55 2.75 0.75 5.70 1.25 6.50 1.15 0.85 -0.10 7 -1.65 13.70 -3.35z m-86.05 -2.20 c5.80 -1.60 10.60 -3 10.60 -3.20 0 -0.35 -10.40 -2.95 -11.90 -2.95 -1.05 0 -20.95 5.40 -21.85 5.90 -0.50 0.30 9.15 2.95 11.25 3.05 0.70 0.05 6.05 -1.20 11.90 -2.80z m61.05 -3.50 c6.75 -1.80 12.45 -3.45 12.65 -3.60 0.20 -0.20 -2.25 -1 -5.50 -1.85 l-5.90 -1.55 -12.75 3.40 c-6.95 1.90 -12.90 3.50 -13.20 3.60 -0.40 0.15 10.45 3.15 11.95 3.30 0.20 0.05 5.95 -1.45 12.75 -3.30z m77.50 -7.95 c0.10 -0.10 0.10 -0.25 0 -0.35 -0.50 -0.35 -11.30 -2.85 -12.20 -2.85 -0.55 0 -6.35 1.45 -12.90 3.25 -6.55 1.80 -12.25 3.25 -12.65 3.25 -0.35 0 -0.70 0.20 -0.70 0.50 0 0.45 0.60 0.65 7.50 2.40 l3.75 0.95 13.50 -3.50 c7.45 -1.90 13.60 -3.55 13.70 -3.65z m-101.80 1.45 c6.80 -1.85 12.20 -3.50 12 -3.65 -0.65 -0.55 -10.50 -3 -12 -3 -1.40 0 -24.55 6.25 -25.05 6.75 -0.15 0.15 -0.15 0.30 -0.05 0.40 0.35 0.25 10.70 2.75 11.70 2.80 0.55 0.05 6.55 -1.45 13.40 -3.30z m64.05 -4.30 l13.40 -3.65 -6.25 -1.65 -6.20 -1.65 -12.45 3.35 c-14.30 3.90 -14.75 4.05 -13.70 4.45 1.25 0.45 10.20 2.70 11 2.75 0.40 0 6.80 -1.60 14.20 -3.60z m64.45 -3.90 c6.80 -1.70 12.20 -3.30 12 -3.45 -0.20 -0.20 -3.30 -1.05 -6.80 -1.95 l-6.45 -1.60 -12.20 3.35 c-6.70 1.85 -12.20 3.50 -12.20 3.65 0 0.40 11.55 3.45 12.50 3.25 0.40 -0.05 6.35 -1.50 13.15 -3.25z m-89.30 -2.45 c7.05 -1.95 12.90 -3.60 13 -3.65 0.05 -0.10 -2.90 -0.90 -6.55 -1.85 l-6.70 -1.70 -3.15 0.85 c-14.80 4.05 -23.40 6.55 -23.25 6.75 0.40 0.40 11.05 3 12.40 3.05 0.80 0.05 7.20 -1.55 14.25 -3.45z m63 -4.05 c6.30 -1.70 11.60 -3.25 11.80 -3.45 0.45 -0.40 -9.30 -3 -11.25 -3 -1.50 -0.05 -24.90 6.15 -24.90 6.55 0 0.45 9.40 2.85 11.35 2.90 0.90 0.05 6.75 -1.35 13 -3z m64.15 -3.15 c11.90 -3.10 12.20 -3.20 10.25 -3.70 -9.80 -2.60 -12 -3.10 -13.15 -3.10 -1.25 0 -23 5.70 -23.40 6.15 -0.15 0.15 12.60 3.65 13.80 3.80 0.15 0 5.75 -1.40 12.50 -3.15z m-89.20 -3.15 c6.70 -1.80 12.20 -3.45 12.20 -3.60 0 -0.20 -3 -1.05 -6.60 -1.95 l-6.65 -1.65 -12.35 3.40 c-6.75 1.85 -12.20 3.50 -12.05 3.65 0.25 0.25 11.45 3.30 12.60 3.45 0.35 0 6.15 -1.45 12.85 -3.30z m62.20 -3.85 c13.25 -3.60 12.85 -2.95 3.45 -5.35 l-4.25 -1.10 -11.60 3.15 c-6.35 1.75 -11.45 3.30 -11.30 3.45 0.30 0.35 10.05 2.95 11.20 3 0.40 0 6.05 -1.40 12.50 -3.15z m63.30 -2.35 c6.60 -1.65 12.10 -3.20 12.30 -3.35 0.20 -0.20 -3.25 -1.20 -7.70 -2.30 l-8.05 -1.90 -11.65 3.15 c-6.40 1.75 -11.55 3.25 -11.45 3.35 0.10 0.10 3.40 1.05 7.35 2.05 3.90 1.05 7.20 1.95 7.20 2 0.05 0 5.45 -1.30 12 -3z m-90.75 -3.20 c12.55 -3.50 13.60 -3.80 13.25 -4.10 -0.15 -0.15 -3.15 -1.05 -6.65 -1.95 l-6.40 -1.65 -11.60 3.10 c-6.40 1.70 -11.65 3.25 -11.65 3.40 0 0.40 11.45 3.35 13.30 3.40 0.80 0.05 5.20 -0.95 9.75 -2.20z m62.95 -4.10 c5.90 -1.55 10.85 -2.90 10.95 -3 0.10 -0.10 0.10 -0.30 -0.10 -0.45 -0.50 -0.50 -9.55 -2.70 -11.20 -2.70 -0.90 0 -6.15 1.25 -11.65 2.75 -5.50 1.50 -10.35 2.75 -10.75 2.75 -0.40 0 -0.75 0.20 -0.75 0.40 0 0.45 9.50 2.95 11.50 3.05 0.70 0.05 6.10 -1.20 12 -2.80z m-25.15 -6.25 c6.40 -1.70 11.35 -3.25 11 -3.45 -0.35 -0.15 -3.70 -1.05 -7.45 -2 l-6.85 -1.65 -10.40 2.90 c-5.70 1.60 -10.70 3.10 -11.05 3.30 -0.40 0.20 2.15 1.10 6 2.10 3.65 0.95 6.75 1.80 6.90 1.85 0.15 0.05 5.45 -1.30 11.85 -3.05z"/>
  <path d="M376.75 764.25 c-44 -5.20 -64.40 -7.55 -141.75 -16.50 -37.05 -4.30 -66 -7.65 -142.75 -16.55 -13.20 -1.55 -29.30 -3.40 -35.75 -4.15 l-11.75 -1.35 -0.15 -50.85 -0.10 -50.85 1.15 0 c0.60 0 5.05 0.35 9.85 0.75 9.50 0.80 35.80 2.75 53 4 22.10 1.55 25 1.75 36.25 2.50 6.35 0.40 20.60 1.30 31.75 2 11.15 0.70 25.55 1.60 32 2 15 0.95 32.80 2.05 49 3 7 0.40 14.35 0.85 16.25 1 6.65 0.45 11.05 0.75 19.75 1.25 10.35 0.60 28.30 1.80 38.50 2.50 4 0.25 16.95 1.20 28.75 2 20.90 1.45 41.80 3.05 53 4 3.05 0.30 6.10 0.50 6.90 0.50 l1.35 0 0 60 c0 47.70 -0.15 60 -0.60 59.95 -0.35 -0.05 -20.45 -2.40 -44.65 -5.20z"/>
  <path d="M394.25 641.95 c-12.90 -1 -27.20 -2.10 -31.75 -2.40 -4.55 -0.30 -11.30 -0.80 -15 -1.05 -3.70 -0.25 -10.35 -0.70 -14.75 -1 -4.40 -0.30 -11.35 -0.75 -15.50 -1 -4.10 -0.30 -18.05 -1.20 -31 -2 -12.90 -0.85 -26.85 -1.70 -31 -2 -4.10 -0.25 -11.65 -0.70 -16.75 -1 -30.65 -1.70 -143.80 -9 -152.40 -9.85 -1.50 -0.10 -2.60 -0.30 -2.50 -0.40 0.10 -0.10 8.95 -0.30 19.65 -0.50 10.75 -0.15 23.55 -0.40 28.50 -0.50 47.30 -1.05 75.70 -1.30 85.75 -0.80 5.35 0.30 17.85 0.90 27.75 1.30 9.90 0.40 22.30 0.95 27.50 1.20 5.25 0.30 13 0.65 17.25 0.80 9.65 0.30 18.30 0.70 24.50 1 6.40 0.35 48.60 2.20 57 2.50 8.75 0.35 17.85 0.75 22.25 1 1.95 0.10 7.20 0.35 11.75 0.55 4.55 0.15 9.40 0.40 10.75 0.45 1.40 0.10 3.25 0.20 4.15 0.20 l1.60 0.05 0 7.75 0 7.75 -2.10 -0.05 c-1.20 -0.05 -12.70 -0.95 -25.65 -2z"/>
  <path d="M410.95 581.30 c-0.10 -0.10 -4.15 -0.35 -8.95 -0.50 -4.80 -0.20 -12.45 -0.55 -17 -0.80 -4.55 -0.25 -12.05 -0.60 -16.75 -0.75 -4.65 -0.15 -9.85 -0.40 -11.50 -0.50 -3.25 -0.25 -12 -0.60 -24.50 -1 -4.40 -0.15 -8.90 -0.40 -10 -0.50 -1.10 -0.15 -5.95 -0.35 -10.75 -0.50 -4.80 -0.15 -10.10 -0.35 -11.75 -0.50 -1.65 -0.15 -6.95 -0.35 -11.75 -0.50 -4.80 -0.15 -9.75 -0.40 -11 -0.50 -1.25 -0.15 -7.75 -0.50 -14.50 -0.75 -23.10 -0.95 -36.25 -1.50 -39.75 -1.70 -1.90 -0.15 -7.20 -0.40 -11.75 -0.55 -4.55 -0.15 -10.05 -0.35 -12.25 -0.50 -5.50 -0.30 -13.35 -0.70 -27.25 -1.25 -16.80 -0.75 -43.95 -1.95 -49.25 -2.25 -2.45 -0.10 -7.75 -0.35 -11.75 -0.55 -4 -0.20 -7.30 -0.40 -7.40 -0.45 -0.30 -0.25 -0.05 -46.90 0.20 -47.35 0.20 -0.25 1.35 -0.35 2.65 -0.20 1.25 0.15 16.50 0.40 33.80 0.55 17.35 0.15 39.25 0.40 48.75 0.50 9.50 0.15 26.95 0.35 38.75 0.50 11.85 0.15 31.30 0.35 43.25 0.50 11.95 0.15 31.45 0.35 43.25 0.50 31.70 0.35 67.20 0.80 77.75 1 5.10 0.10 13.60 0.20 18.90 0.20 l9.60 0.05 0 29 0 29 -4.40 0 c-2.45 0 -4.55 -0.10 -4.65 -0.20z"/>
  <path d="M349.50 479.15 c-6.75 -0.05 -53.75 -0.35 -104.50 -0.65 -115.25 -0.70 -139.95 -0.90 -140.55 -1.30 -0.25 -0.15 -0.45 -10.55 -0.45 -24.70 0 -22.85 0.05 -24.45 0.90 -24.70 0.45 -0.15 6.25 -0.35 12.85 -0.50 6.60 -0.20 15.60 -0.40 20 -0.55 4.40 -0.15 13.05 -0.35 19.25 -0.50 6.20 -0.15 15.10 -0.35 19.75 -0.50 10.65 -0.35 44.75 -1.15 62.25 -1.50 7.30 -0.15 14.60 -0.35 16.25 -0.50 1.65 -0.15 10.65 -0.35 20 -0.50 9.35 -0.15 18.15 -0.35 19.50 -0.50 1.40 -0.10 10.80 -0.35 21 -0.50 10.15 -0.20 18.60 -0.40 18.75 -0.50 0.15 -0.05 9.15 -0.30 20 -0.50 10.85 -0.20 19.85 -0.40 20 -0.50 0.20 -0.10 34.20 -0.90 42.25 -0.95 l3 -0.05 0.30 10.50 c0.15 5.80 0.35 19.20 0.40 29.90 l0.05 19.35 -29.35 -0.10 c-16.20 -0.10 -34.90 -0.20 -41.65 -0.25z"/>
  <path d="M218.35 410.70 c-0.15 -0.20 -0.20 -0.90 -0.10 -1.65 0.15 -0.70 0.30 -3.70 0.45 -6.65 0.10 -2.95 0.35 -5.55 0.50 -5.80 0.15 -0.30 1.70 -0.50 3.45 -0.55 1.70 0 7.70 -0.25 13.35 -0.55 5.65 -0.25 12.95 -0.60 16.25 -0.75 3.30 -0.15 7.60 -0.35 9.50 -0.50 1.95 -0.10 6.45 -0.35 10 -0.50 3.60 -0.15 8.30 -0.40 10.50 -0.50 2.20 -0.10 7.05 -0.30 10.75 -0.50 3.70 -0.15 10.45 -0.50 15 -0.75 4.55 -0.25 11.05 -0.60 14.50 -0.75 3.45 -0.15 10.10 -0.50 14.75 -0.75 4.70 -0.25 9.95 -0.50 11.70 -0.50 l3.20 0 -0.30 7.10 c-0.20 3.85 -0.45 7.15 -0.60 7.30 -0.10 0.15 -1.85 0.30 -3.85 0.40 -3.85 0.10 -13.05 0.60 -19.40 0.95 -2.05 0.15 -8.90 0.45 -15.25 0.75 -6.30 0.25 -13.20 0.60 -15.25 0.75 -2.05 0.15 -7 0.35 -11 0.50 -4 0.15 -8.95 0.40 -11 0.50 -2.05 0.15 -11.15 0.60 -20.25 1 -9.05 0.45 -20.45 1 -25.25 1.25 -10.50 0.60 -11.25 0.60 -11.65 0.20z"/>
  <path d="M366.35 400.40 c-0.60 -2.15 -0.40 -201.30 0.15 -201.65 0.65 -0.40 13 -3.75 13.90 -3.75 0.50 0 0.60 20.75 0.50 102.85 l-0.15 102.85 -1.75 0.10 c-0.95 0 -4.15 0.20 -7.05 0.40 -5.30 0.40 -5.30 0.40 -5.60 -0.80z"/>
  <path d="M385 298.30 c0 -71.30 0.15 -102.35 0.55 -102.55 0.25 -0.20 1.05 -0.20 1.75 -0.05 l1.20 0.30 -0.10 102.15 -0.15 102.10 -1.60 0.15 -1.65 0.15 0 -102.25z"/>
  <path d="M394.35 397.15 c-0.15 -0.25 -0.25 -46.25 -0.30 -102.25 l-0.05 -101.85 3.40 -1 c5.20 -1.50 10.90 -3.05 11.25 -3.05 0.20 0 0.35 46.75 0.35 103.90 l0 103.95 -5.35 0.30 c-6.90 0.45 -9.05 0.45 -9.30 0z"/>
  <path d="M413.35 396.65 c-0.20 -0.15 -0.35 -47 -0.35 -104 l0 -103.70 1.65 0.15 1.60 0.15 0.10 103.25 c0.05 72.65 -0.05 103.40 -0.45 103.85 -0.55 0.70 -2 0.85 -2.55 0.30z"/>
  <path d="M219.50 391.85 c0 -1.20 0.15 -1.30 3.65 -1.55 1.95 -0.20 12.85 -0.75 24.10 -1.30 11.30 -0.55 22.65 -1.10 25.25 -1.25 11 -0.55 14.95 -0.80 28.50 -1.50 7.85 -0.40 21.35 -1.05 30 -1.50 8.65 -0.40 16.85 -0.80 18.25 -0.90 2.05 -0.10 2.50 0.05 2.65 0.85 0.35 1.75 1.60 1.65 -27.40 3.05 -6.55 0.35 -13.50 0.70 -19 1 -2.35 0.10 -6.60 0.35 -9.50 0.50 -12 0.55 -15.95 0.80 -20 1 -4.40 0.25 -9.35 0.50 -21.25 1 -3.85 0.15 -9.90 0.50 -13.50 0.75 -3.55 0.25 -9.95 0.60 -14.10 0.80 l-7.65 0.35 0 -1.30z"/>
  <path d="M115 366.50 c-10.70 -1.50 -21.10 -7 -29 -15.30 -11.90 -12.60 -18.05 -28.90 -18.10 -47.70 0 -28.95 16 -53.80 39.40 -61.15 16.55 -5.20 34.55 -0.65 47.55 12.05 9.15 8.95 15.15 20.35 18.20 34.60 1.50 7.10 1.65 20.35 0.25 27.75 -3.35 17.95 -12.80 33.20 -26 42 -4.85 3.20 -11.20 5.95 -16.15 7 -4.45 0.95 -12.10 1.30 -16.15 0.75z m12.75 -5.60 c0.15 -0.10 -0.45 -1.65 -1.30 -3.45 -3.65 -7.45 -6.70 -19.30 -7.10 -27.65 l-0.20 -3.45 -2.65 -1.20 c-1.45 -0.60 -2.80 -1.15 -3 -1.15 -0.40 0 -2.70 10.05 -3.80 16.75 -0.45 2.75 -0.85 8.15 -0.90 12 l-0.05 7 2.50 0.65 c3.95 0.95 8.70 1.40 12.65 1.05 1.95 -0.15 3.70 -0.40 3.85 -0.55z m15.50 -6.25 c1.95 -1.25 5.30 -4.10 7.45 -6.30 l3.95 -3.95 -4.45 -2.35 c-7.85 -4.05 -15 -9.90 -18.75 -15.40 -1.15 -1.65 -1.75 -2.15 -2.35 -1.85 -0.50 0.20 -1.80 0.60 -3 0.90 -2.15 0.55 -2.15 0.55 -1.85 2.30 0.60 3.30 3.25 10.50 5.55 15.10 3 6.05 8.20 13.90 9.20 13.90 0.40 0 2.35 -1.05 4.25 -2.35z m-44.10 -5.95 c1.95 -6.85 5.50 -16.40 8.35 -22.55 l2.50 -5.25 -2.05 -3.20 c-2.40 -3.70 -2 -3.75 -7.60 1.20 -6.30 5.55 -14 14.75 -15.35 18.30 -0.70 1.85 0.55 4.45 4.10 8.60 2.75 3.15 7.65 7.70 8.35 7.70 0.20 0 1 -2.15 1.70 -4.80z m62.05 -15.10 c1.40 -2.75 3.80 -9.35 3.80 -10.40 0 -0.55 -0.85 -0.70 -4.10 -0.70 -5.70 0 -12.30 -1.25 -17.65 -3.30 -2.45 -1 -4.85 -1.85 -5.25 -2 -0.50 -0.15 -1.45 0.65 -2.60 2.25 l-1.85 2.50 2.60 2.35 c3.30 2.95 7.20 5.60 11.25 7.65 3.55 1.80 11.65 4.55 12.25 4.20 0.20 -0.10 0.90 -1.25 1.55 -2.55z m-79.60 -7.35 c5.35 -4.80 13.25 -10.20 20.50 -14 2.45 -1.25 2.80 -1.65 2.60 -2.60 -0.15 -0.60 -0.35 -2 -0.35 -3.10 -0.10 -1.95 -0.15 -2.05 -1.70 -2.05 -3 0 -15.85 1.55 -21.90 2.65 l-6 1.10 0.15 3.25 c0.20 4.20 3.20 17 3.95 17 0.15 0 1.35 -1 2.75 -2.25z m47.50 -7.05 c2.30 -1.60 5.05 -5.70 6 -8.95 1 -3.45 0.70 -10.10 -0.60 -13.50 -1.60 -4.20 -5.35 -7.90 -8.85 -8.70 -13.20 -3.20 -20.90 17.50 -10.95 29.35 2.20 2.55 5.05 3.70 8.90 3.50 2.75 -0.15 3.75 -0.45 5.50 -1.70z m34.60 -4.95 c1.60 -0.35 3.20 -0.95 3.45 -1.20 0.60 -0.60 0.85 -16.25 0.25 -16.80 -0.20 -0.20 -1.30 0.45 -2.40 1.40 -4.60 3.95 -12.35 7 -19.80 7.85 -2.35 0.25 -4.40 0.60 -4.65 0.70 -0.25 0.15 -0.55 1.40 -0.75 2.80 -0.20 1.40 -0.45 2.85 -0.60 3.25 -0.30 0.80 3.05 1.95 8.05 2.75 3.80 0.60 12.60 0.20 16.45 -0.75z m-17.05 -13.05 c9.40 -3.20 16.90 -11.65 16.90 -19 0 -3.25 -2.20 -8.95 -5.45 -14.20 l-2.30 -3.75 -0.55 2.75 c-1.85 8.95 -6.35 17.10 -13.30 23.75 l-3.55 3.40 0.80 2.85 c0.45 1.55 0.80 3.40 0.80 4.05 0 2.25 0.45 2.30 6.65 0.15z m-41.35 -3.85 c0.55 -1.95 1.20 -3.95 1.40 -4.35 0.40 -0.95 -6.15 -4.55 -13.05 -7.20 -4.60 -1.80 -13.50 -4.30 -15.15 -4.30 -0.75 0 -1.15 1 -2.20 5.40 -0.70 2.95 -1.40 7 -1.60 9 l-0.35 3.60 7.20 0.05 c3.95 0 10.35 0.30 14.20 0.65 3.85 0.35 7.35 0.70 7.75 0.75 0.50 0 1.05 -1.05 1.80 -3.60z m34.25 -10.55 c4.70 -7 6.90 -15.55 6 -23.50 -0.60 -5.40 -1.65 -9.15 -3.10 -10.95 -1 -1.30 -6.95 -4.45 -9.70 -5.15 -1.35 -0.35 -1.40 -0.30 -1.05 1.10 2.80 10.95 2.90 21.95 0.25 32.55 l-1 4.05 2.65 2.75 c1.45 1.50 2.90 2.70 3.15 2.65 0.30 -0.05 1.55 -1.60 2.80 -3.50z m-24.80 -2.40 c0.70 -0.30 1.25 -0.75 1.25 -1 0 -0.25 -1.05 -2.10 -2.30 -4.05 -2.95 -4.60 -9.95 -11.55 -14.45 -14.45 -4.60 -2.95 -8.65 -5 -9.25 -4.65 -1.80 1.10 -8.90 12.10 -8.20 12.70 0.25 0.20 1.60 0.80 2.95 1.30 6.35 2.30 16.30 8 22 12.65 l2.50 2 2.10 -1.95 c1.20 -1.10 2.70 -2.25 3.40 -2.55z m12.40 -2.40 c0.50 -1.95 -0.05 -13.25 -0.85 -17 -1.20 -5.40 -3.15 -11.20 -5.40 -15.70 l-1.95 -3.90 -2.85 0.35 c-5.35 0.65 -13.70 3.90 -17.05 6.60 l-1.20 0.95 3.20 2.30 c7.60 5.45 14.85 14.60 18 22.70 l1.60 4.15 2.30 0.20 c1.25 0.10 2.65 0.20 3.10 0.25 0.45 0.05 0.95 -0.35 1.10 -0.90z"/>
  <path d="M119.75 318.55 c-1.55 -0.65 -3.75 -3.10 -5.05 -5.60 -3.60 -7.10 -1.85 -17.60 3.60 -21.80 2.60 -1.95 6 -1.90 8.55 0.15 3.90 3.10 6.25 10.45 5.20 16.30 -1.20 6.80 -4.95 11.45 -9.25 11.35 -1.15 0 -2.50 -0.20 -3.05 -0.40z"/>
  <path d="M253.95 351.05 c-3.30 -1.30 -6.35 -3.50 -9.80 -7.20 -5.15 -5.50 -8.35 -11.85 -10.90 -21.45 -6.70 -25.55 2.75 -56.45 19.85 -64.85 2.95 -1.45 3.35 -1.55 5.75 -1.05 1.45 0.25 3.55 0.95 4.65 1.50 7.75 3.95 14.10 16.05 16.85 32 1.15 6.60 1.10 20.60 0 27.25 -3 17.50 -10.60 30.70 -19.20 33.40 -4 1.25 -4.80 1.30 -7.20 0.40z"/>
  <path d="M481 413.55 c0 -252.85 0.15 -397.55 0.50 -397.55 0.25 0 10.30 3.25 22.35 7.20 12.05 3.95 28.45 9.35 36.40 11.95 8 2.60 26.30 8.60 40.75 13.35 14.45 4.70 31.45 10.25 37.75 12.30 6.35 2.10 13.10 4.30 15 4.95 1.95 0.65 13.65 4.45 26 8.50 12.40 4 23.95 7.80 25.75 8.40 l3.25 1.10 0.05 351.45 c0 246.50 -0.15 351.45 -0.50 351.55 -0.30 0.05 -13.80 1.65 -30.05 3.50 -16.20 1.85 -36 4.10 -44 5.05 -7.95 0.90 -25.30 2.90 -38.50 4.45 -13.20 1.55 -33.65 3.90 -45.50 5.30 -11.80 1.35 -27.35 3.15 -34.50 4 -7.15 0.80 -13.40 1.60 -13.85 1.75 -0.85 0.25 -0.90 -18.90 -0.90 -397.25z m115.25 321.45 c12.70 -1.45 23.10 -6.75 33.25 -16.95 7.60 -7.65 13.20 -15.90 18.05 -26.60 15.25 -33.80 14.65 -78.20 -1.60 -110.90 -7.05 -14.25 -15.60 -24.50 -26.55 -31.95 -3.75 -2.60 -11.30 -5.95 -15.90 -7.20 -5.90 -1.55 -16.85 -1.55 -22.60 0 -7 1.90 -14.30 5.60 -20.05 10.20 -1.45 1.10 -2.35 1.95 -2.10 1.85 0.30 -0.15 2.65 -1.30 5.25 -2.60 6.95 -3.45 11.40 -4.50 19 -4.50 4.10 0 7.45 0.30 9.65 0.85 34.20 8.20 56.65 57.30 49.80 108.80 -3.70 27.90 -16.90 52.90 -34.10 64.60 -15.55 10.55 -33.95 10.65 -49.85 0.30 l-2.25 -1.45 2.25 2.05 c8.65 8.05 18.45 12.25 32.75 13.95 0.30 0 2.55 -0.20 5 -0.45z m-8.55 -14 c1.60 -0.25 3 -0.55 3.10 -0.65 0.10 -0.10 -0.70 -2.75 -1.85 -5.90 -4.25 -11.90 -7.05 -25.95 -7.75 -38.80 l-0.35 -6.10 -1.35 -0.30 c-0.75 -0.15 -2.10 -0.85 -3.05 -1.55 -0.90 -0.65 -1.80 -1.05 -2 -0.85 -0.55 0.65 -2.85 13.45 -3.95 21.65 -1.10 8.90 -2 19.95 -2 25.65 l0 3.90 2.15 0.90 c1.90 0.80 3.50 1.25 8.60 2.25 1.90 0.35 5.50 0.30 8.45 -0.20z m18.25 -7.70 c3.25 -2.45 9.95 -9.45 12.80 -13.50 l2.45 -3.45 -1.10 -0.80 c-0.55 -0.45 -2.70 -1.85 -4.70 -3.15 -8.40 -5.40 -16.95 -14.70 -21.15 -22.90 -0.50 -0.95 -0.95 -1.80 -1 -1.90 -0.05 -0.05 -1.30 0.45 -2.80 1.15 -1.50 0.70 -3.10 1.25 -3.60 1.25 -0.65 0 -0.80 0.30 -0.60 1.15 1.70 7.90 3.25 13.70 5.10 19.10 2.80 8.15 10.80 24.75 11.95 24.75 0.15 0 1.35 -0.75 2.65 -1.70z m-48.70 -5.65 c1.15 -7.65 6.20 -25.55 10.75 -38 l2.55 -7.10 -2.35 -4.80 -2.35 -4.80 -1.50 1.40 c-5.95 5.55 -15.80 18.75 -20.40 27.35 -3.25 6.05 -2.85 8.30 3.15 17.20 2.65 3.90 8.70 11.10 9.40 11.10 0.20 0 0.55 -1.05 0.75 -2.35z m70.70 -24.75 c1.90 -4.85 5.55 -16.65 5.55 -18 0 -0.05 -2.45 -0.20 -5.40 -0.25 -8.45 -0.10 -16.35 -2.35 -23.30 -6.55 -2.75 -1.65 -3 -1.70 -3.50 -0.90 -0.30 0.50 -1.30 2 -2.15 3.40 -0.90 1.35 -1.65 2.75 -1.65 3.05 0 1.05 6.60 8.20 10.15 11.10 4.25 3.40 8.35 5.80 13.55 8.05 5.15 2.15 5.90 2.15 6.75 0.10z m-78 -24 c2.65 -2.20 7.05 -5.60 9.85 -7.50 l5.05 -3.50 -0.40 -2.30 c-0.20 -1.30 -0.40 -3.45 -0.40 -4.75 l-0.05 -2.45 -3.35 0.35 c-6.50 0.65 -13.95 1.85 -20.90 3.35 -3.85 0.85 -7.65 1.65 -8.40 1.75 l-1.45 0.30 0.35 3.55 c0.15 1.95 0.75 6.35 1.30 9.80 0.90 5.65 1.45 8.45 3 14.15 l0.50 1.95 5.05 -5.35 c2.75 -2.90 7.20 -7.10 9.85 -9.35z m39.30 3.15 c4.50 -2.05 8.50 -8.35 9.95 -15.65 3.20 -15.80 -3.80 -31.90 -13.90 -31.90 -5.95 0 -11.05 5.65 -13.60 15.10 -1.15 4.20 -1.15 13.40 -0.05 18.05 2.85 11.55 10.40 17.70 17.60 14.40z m42.10 -9 c3.20 -0.90 4.10 -1.35 4.35 -2.20 0.55 -1.95 0.95 -17 0.60 -21 l-0.40 -3.85 -3.85 3.60 c-7.25 6.80 -14.15 9.85 -25.10 11.15 l-2.30 0.30 -0.35 3.85 c-0.20 2.10 -0.40 4.40 -0.45 5.05 -0.10 1.05 0.25 1.40 2.40 2.20 7.05 2.65 17.40 3 25.10 0.90z m-21.95 -17.80 c5.05 -1.80 7.85 -3.55 11.65 -7.15 4.10 -3.80 6.45 -7.25 8.45 -12.20 2.05 -5.20 2.50 -8.70 1.70 -12.95 -0.90 -4.80 -3.40 -11.90 -6.10 -17.20 -2.55 -5.15 -2.50 -5.15 -3.80 1.90 -2.25 12.05 -8.35 24.75 -16 33.15 l-2.60 2.90 0.90 3.75 c0.50 2.10 0.90 4.65 0.90 5.65 0 2.05 0.40 3.40 1 3.40 0.25 0 2 -0.55 3.90 -1.25z m-44.65 -4.95 c0.20 -1.35 0.80 -3.90 1.30 -5.65 0.55 -1.75 0.85 -3.40 0.70 -3.65 -0.60 -0.95 -10.15 -7 -14.65 -9.25 -5 -2.50 -16.15 -6.40 -17.50 -6.15 -0.55 0.10 -1.05 1.05 -1.45 2.90 -1.25 5.25 -2.60 14.80 -2.75 19 l-0.15 4.25 5.50 0.10 c8.90 0.10 19.20 0.70 23.75 1.35 2.90 0.40 4.35 0.40 4.55 0.05 0.20 -0.25 0.50 -1.60 0.70 -2.95z m39.75 -17.70 c6.90 -13.85 8.50 -28.35 4.95 -43.80 -1 -4.20 -1.25 -4.75 -3.45 -6.85 -2.10 -2.05 -10.30 -6.80 -10.85 -6.25 -0.15 0.10 0.25 3 0.80 6.40 1.25 7.55 1.95 16.55 1.75 22.90 -0.25 6.40 -1.55 17 -2.65 21.70 l-0.95 3.90 2.10 2.35 c1.15 1.30 2.65 3.20 3.30 4.25 l1.15 1.90 0.90 -1.15 c0.50 -0.65 1.85 -3.10 2.95 -5.35z m-31.25 -0.35 c0.55 -0.55 1.80 -1.60 2.75 -2.35 l1.70 -1.35 -1.95 -4.10 c-2.35 -4.85 -7.15 -12.25 -10.60 -16.25 -4.50 -5.25 -15.95 -14.20 -17.15 -13.45 -1.30 0.80 -8.70 14.20 -9.70 17.50 -0.25 0.85 0.40 1.35 4.05 3.25 8.95 4.60 17.25 10.70 24.15 17.70 l3.20 3.30 1.30 -1.60 c0.65 -0.90 1.70 -2.10 2.25 -2.65z m17 -9.45 c0.85 -12.55 -1.85 -29.25 -7.05 -43.20 -2.30 -6.15 -2.35 -6.25 -4.90 -5.85 -6.40 1 -12.60 3.80 -18.90 8.60 l-2.90 2.20 4.90 4.85 c9.50 9.40 16.25 20.55 19.80 32.80 0.70 2.35 1.35 4.50 1.50 4.70 0.15 0.25 1.45 0.50 2.90 0.55 1.40 0.05 2.70 0.20 2.85 0.30 0.10 0.15 0.50 0.25 0.85 0.25 0.40 0 0.70 -1.60 0.95 -5.20z m8.05 -72.35 c43.70 -6.05 71.35 -71.25 55.95 -131.70 -8.50 -33.35 -30.05 -58.15 -54 -62.20 -5.15 -0.90 -6.35 -0.95 -11.60 -0.50 -11.10 0.85 -21.40 5.50 -30.65 13.70 -5.05 4.45 -5.25 4.95 -0.60 1.40 13.95 -10.60 31.25 -12.15 46.85 -4.25 10.50 5.30 21.20 17.10 28.25 31.10 16.05 32 16.25 76.90 0.40 109.35 -14.30 29.40 -38.90 42.95 -62.80 34.55 -4.75 -1.65 -11.05 -5.15 -14.30 -7.90 -4 -3.45 -4 -3.05 0.10 0.90 12.55 12.15 27.50 17.65 42.40 15.55z m-6.50 -14.10 c0.20 -0.15 -0.60 -2.80 -1.70 -5.80 -2.45 -6.45 -5.75 -19.65 -6.80 -27.05 -0.40 -2.90 -0.90 -8.10 -1.10 -11.60 l-0.35 -6.35 -1.45 -0.50 c-0.80 -0.30 -2.10 -0.95 -2.85 -1.55 -0.80 -0.55 -1.65 -1 -1.90 -1 -0.50 0 -2.75 11.20 -3.90 19.75 -1.15 8.10 -2.25 21.30 -2.25 26.85 l0 4.80 2.15 0.80 c5.10 1.90 7.55 2.30 13.70 2.15 3.35 -0.10 6.25 -0.30 6.45 -0.50z m20.95 -12.65 c2.20 -2.20 5.20 -5.80 6.70 -7.95 2.55 -3.65 2.65 -3.95 1.80 -4.45 -10.80 -6.25 -19.35 -14.60 -25.05 -24.45 -1.35 -2.30 -2.20 -3.30 -2.70 -3.15 -0.40 0.15 -2 0.70 -3.50 1.25 -3.20 1.15 -3.15 0.75 -1.15 9.05 2.35 9.90 6.85 22 10.75 29 0.85 1.50 2.20 3.95 3 5.40 l1.50 2.60 2.30 -1.60 c1.25 -0.90 4.10 -3.45 6.35 -5.70z m-54.50 -0.55 c1.15 -7.70 6.60 -26.85 11.15 -39.10 1.85 -5 2.15 -6.30 1.70 -7 -0.70 -0.85 -3.25 -6.20 -3.85 -7.80 -0.30 -0.90 -0.65 -0.65 -3.10 2 -7.25 7.95 -12.45 14.70 -16.25 21 -4 6.75 -5.05 9 -5.10 11 -0.05 2.25 1.90 6.35 5.50 11.80 2.20 3.35 8.45 10.45 9.20 10.45 0.20 0 0.55 -1.05 0.75 -2.35z m71.60 -27.30 c1.45 -3.85 3.45 -10.25 4.35 -13.95 l0.30 -1.40 -4.45 0 c-8.95 0 -18.80 -2.85 -25.90 -7.50 l-1.60 -1.05 -1.10 2.15 c-0.60 1.20 -1.60 2.85 -2.25 3.70 l-1.20 1.50 2.65 3.25 c6.55 7.90 15.25 13.90 25.10 17.35 0.85 0.30 1.75 0.45 2 0.40 0.30 -0.05 1.25 -2.05 2.10 -4.45z m-91.25 -9.20 c5.90 -6.70 15.40 -15 23.35 -20.40 l3.65 -2.50 -0.30 -2.50 c-0.15 -1.35 -0.30 -3.55 -0.30 -4.85 l0 -2.35 -1.60 0.20 c-0.90 0.15 -4.45 0.60 -7.90 1.05 -7.10 0.90 -12.60 1.85 -18 3.20 -2.05 0.50 -4.40 1.05 -5.15 1.20 l-1.40 0.35 0.30 3.60 c0.75 8.60 4.05 25.35 5.05 25.35 0.10 0 1.10 -1.05 2.30 -2.35z m52.75 -9.45 c8.90 -5.10 12.30 -22.70 7.05 -36.35 -2.45 -6.40 -7.60 -10.85 -12.45 -10.85 -2 0 -6.10 2.20 -7.85 4.20 -4.15 4.75 -6.25 11.40 -6.30 20.05 0 9.20 2.45 16.60 7.05 21.10 3.80 3.70 8.15 4.30 12.50 1.85z m34.90 -7.25 c5.25 -0.70 10.05 -2.25 10.50 -3.35 0.45 -1.10 0.75 -19.05 0.40 -22.45 l-0.30 -2.65 -1.95 2.20 c-5.85 6.65 -15.90 11.60 -25.50 12.60 l-3.35 0.35 -0.30 2.30 c-0.20 1.25 -0.50 3.40 -0.80 4.70 -0.25 1.30 -0.45 2.60 -0.45 2.85 0 0.65 7.65 3 11.25 3.45 4.40 0.60 6.25 0.60 10.50 0z m-12.25 -20.45 c6.75 -3.40 12.15 -8.80 15.20 -15.15 3.90 -8.05 4.15 -13.25 1.10 -22.45 -1.95 -5.95 -6.20 -15 -6.85 -14.60 -0.25 0.15 -0.45 1 -0.45 1.85 -0.05 2.45 -1.75 9.60 -3.50 14.60 -2.95 8.25 -7.80 16.65 -13.50 23.25 l-2.40 2.75 0.95 4 c0.50 2.20 1.05 5.05 1.20 6.30 l0.30 2.35 2.85 -0.85 c1.55 -0.50 3.85 -1.40 5.10 -2.05z m-48.50 -2.85 c0.30 -1.60 1 -4.45 1.60 -6.30 0.60 -2.05 0.85 -3.60 0.60 -3.75 -9.95 -7 -16.65 -10.60 -24.70 -13.25 -8.05 -2.65 -7.85 -2.65 -8.45 -0.70 -1.10 3.65 -2.70 13.55 -3.35 21 l-0.30 3.85 7.40 0.05 c8.60 0 12.35 0.25 19.95 1.15 3.05 0.40 5.75 0.70 6.10 0.75 0.35 0 0.80 -1.20 1.15 -2.80z m38.35 -15.20 c7.10 -11.75 9.90 -27.90 7.40 -42.45 -1.20 -7 -2.15 -9.55 -4.25 -11.50 -1.90 -1.75 -7.60 -5.05 -9.95 -5.75 -1.15 -0.35 -1.20 -0.25 -0.90 1.30 0.15 0.95 0.65 3.75 1.05 6.20 1.20 6.80 1.70 17.35 1.25 25.05 -0.40 6.75 -2.10 18.15 -3 20.55 -0.40 1.05 -0.15 1.55 1.60 3.55 1.15 1.30 2.55 3.20 3.15 4.20 0.55 1.05 1.25 1.80 1.55 1.75 0.25 -0.10 1.20 -1.40 2.10 -2.90z m-30.60 -2.35 c1.45 -1.55 3.20 -3.20 3.95 -3.55 0.70 -0.40 1.30 -0.95 1.30 -1.20 0 -0.95 -5.25 -10.75 -7.70 -14.35 -3.40 -5 -12.10 -13.70 -16.95 -16.90 -2.15 -1.45 -4.25 -2.60 -4.60 -2.60 -0.85 0 -4.65 6.15 -7.75 12.55 -1.35 2.85 -2.50 5.35 -2.50 5.55 0 0.15 2.45 1.60 5.45 3.20 8.45 4.45 19.95 13.20 24.05 18.25 0.85 1.10 1.70 1.95 1.85 1.95 0.15 0 1.50 -1.30 2.90 -2.90z m17.90 -8.70 c1.15 -12.85 -1.90 -32.20 -7.15 -45.55 -2.10 -5.20 -2.15 -5.35 -3.70 -5.35 -5.35 0 -15.30 4.55 -21 9.55 l-1.65 1.40 5.60 5.65 c9.65 9.80 16.45 21.75 19.75 34.80 0.55 2.10 0.55 2.10 2.90 2.15 1.30 0 2.80 0.20 3.35 0.45 0.55 0.25 1.15 0.45 1.30 0.45 0.15 0.05 0.45 -1.60 0.60 -3.55z m12.60 -72.85 c5.05 -1.35 13.95 -5.70 18.50 -9.15 17.80 -13.35 30.95 -38.65 35 -67.40 1.15 -8.10 1.55 -24.40 0.80 -32.30 -1.70 -17.65 -5.85 -32.25 -13.35 -46.70 -4.35 -8.40 -8.90 -14.70 -15.20 -21 -17.60 -17.65 -39.25 -21.90 -59.20 -11.60 -4.65 2.40 -11.05 6.90 -13.30 9.40 -1.05 1.15 -0.80 1.05 1.75 -0.65 13.05 -8.75 27.30 -10.50 41.35 -5.05 5.75 2.20 12.40 6.80 17.95 12.40 23.05 23.20 32.60 68.05 22.90 107.45 -6.10 24.70 -18.70 44.05 -34.95 53.55 -1.90 1.10 -5.85 2.85 -8.85 3.85 -5.25 1.80 -5.60 1.85 -12.65 1.85 -6 0.05 -7.90 -0.15 -11.10 -1.05 -6.95 -2.05 -11.50 -4.40 -18.15 -9.55 l-3.50 -2.70 4.05 3.95 c8.50 8.25 18.05 13.50 28.35 15.45 5 0.95 14.45 0.55 19.60 -0.75z m-14.60 -12.80 c1.55 -0.20 2.85 -0.50 2.85 -0.65 0 -0.20 -0.70 -2.15 -1.50 -4.30 -4.65 -12.05 -8.50 -31.40 -8.50 -42.70 0 -3.05 -0.15 -3.65 -0.85 -3.90 -0.50 -0.10 -2 -0.80 -3.35 -1.50 -1.30 -0.70 -2.45 -1.20 -2.50 -1.10 -0.45 0.60 -3 15.30 -3.80 21.80 -1.05 8.30 -2 21.05 -2 26.35 l0 3.20 2.65 0.95 c4.15 1.55 10.10 2.60 12.85 2.30 0.70 -0.05 2.55 -0.30 4.15 -0.45z m18.95 -8.65 c2 -1.60 4.90 -4.35 6.45 -6.15 3.15 -3.60 7.45 -9.35 7.45 -9.95 0 -0.25 -1.45 -1.25 -3.25 -2.25 -7.15 -3.95 -15.45 -11.85 -20.45 -19.45 -1.50 -2.20 -3 -4.65 -3.35 -5.40 -0.60 -1.40 -1.65 -1.80 -2.20 -0.90 -0.15 0.25 -1.55 0.85 -3.05 1.30 -2.35 0.65 -2.65 0.90 -2.45 1.85 2.45 11.40 4.80 19.10 8.30 27.20 2.85 6.70 8.05 16.65 8.70 16.65 0.10 0 1.85 -1.30 3.85 -2.90z m-49.90 -4.70 c1.25 -8.05 7.35 -29.35 11.40 -39.80 l2 -5.10 -2.40 -4.80 -2.35 -4.75 -2.70 2.65 c-9.70 9.45 -21.35 27.10 -21.25 32.30 0 2.35 2.15 6.70 5.95 12 2.40 3.35 8 9.60 8.65 9.60 0.20 0 0.50 -0.95 0.70 -2.10z m71.65 -27.30 c1.40 -3.70 3.45 -10.30 4.35 -14.25 0.35 -1.45 0.30 -1.45 -1.55 -1.15 -2.55 0.45 -10.50 -0.50 -15.15 -1.75 -3.95 -1.05 -11.05 -4.20 -13.50 -5.95 l-1.45 -1.05 -1.25 2.40 c-0.65 1.35 -1.65 2.95 -2.20 3.65 l-1 1.25 1.05 1.50 c3.30 4.70 10.50 11.10 16.70 14.70 3.95 2.35 10.50 5.10 11.65 4.90 0.40 -0.05 1.45 -1.95 2.35 -4.25z m-87.55 -13.15 c6.95 -7.05 11.55 -11 18.35 -15.65 l4.90 -3.40 -0.35 -4.55 c-0.20 -2.55 -0.40 -4.70 -0.50 -4.80 -0.65 -0.75 -18.90 2 -28.35 4.25 l-5.35 1.30 0.30 3.30 c0.45 5.15 1.65 13.45 2.45 17.10 0.95 3.95 2.20 8.50 2.45 8.50 0.05 0 2.80 -2.70 6.10 -6.05z m49 -5.75 c3.70 -2.10 6.75 -6.85 8.50 -13.25 1.20 -4.35 1.20 -14.45 0 -18.90 -2.50 -9.25 -7.40 -14.55 -13.50 -14.60 -4.70 -0.10 -8.40 2.80 -11.50 8.90 -4.10 8.15 -4.05 22.15 0.10 30.40 4.10 8.20 10.20 11 16.40 7.45z m35.30 -7.20 c5.70 -0.80 9.50 -2.15 10.05 -3.55 0.50 -1.35 0.80 -23.70 0.30 -24.20 -0.20 -0.15 -1.45 0.85 -2.75 2.30 -5.70 6.05 -16.10 11.05 -24.40 11.80 l-3.75 0.30 -0.30 2.30 c-0.20 1.25 -0.55 3.50 -0.85 4.95 -0.25 1.50 -0.40 2.80 -0.25 2.90 0.55 0.55 6.45 2.40 9.60 2.95 4.40 0.85 7.70 0.90 12.35 0.25z m-11.35 -21.15 c7.45 -3.85 13.40 -11.15 16.10 -19.75 1.10 -3.55 1.25 -4.75 1 -8 -0.40 -4.95 -2.25 -10.90 -5.70 -18.20 -2.75 -5.80 -3.65 -6.75 -3.65 -3.85 0 2.35 -1.45 8.70 -3.10 13.65 -2.80 8.45 -7.40 16.60 -13.30 23.65 l-3.05 3.55 0.70 2.30 c0.40 1.25 0.95 4.05 1.25 6.25 l0.60 3.95 2.60 -0.75 c1.40 -0.40 4.35 -1.70 6.55 -2.80z m-50.05 -0.45 c0.35 -1.75 2.15 -9 2.55 -10.25 0.30 -0.90 -0.15 -1.45 -3.10 -3.60 -6.90 -5.10 -16.35 -9.70 -25.15 -12.20 -3.05 -0.90 -4.35 -1.10 -4.55 -0.65 -1 1.70 -3.15 14.35 -3.70 21.35 l-0.35 4.30 10.95 0.35 c6 0.20 13.15 0.65 15.90 1 7.30 0.95 7.20 0.95 7.45 -0.30z m40 -19.35 c2.70 -5.25 4.90 -11.80 6 -17.70 1.20 -6.35 1.10 -16.70 -0.20 -23.65 -1.30 -6.75 -2.50 -9.30 -5.15 -11.15 -2.55 -1.75 -9.35 -5.20 -9.65 -4.90 -0.15 0.10 0.20 2.90 0.75 6.15 2.60 15.15 2.15 31.40 -1.20 45.80 -0.65 2.75 -0.60 2.85 0.60 4 0.70 0.65 2.20 2.55 3.30 4.30 2.40 3.65 2.10 3.80 5.55 -2.85z m-31.55 -0.20 c1.70 -1.70 3.55 -3.35 4.10 -3.65 0.95 -0.50 0.85 -0.75 -1.40 -5.40 -3.35 -7 -7.90 -13.35 -13.35 -18.80 -4.25 -4.30 -12.45 -10.50 -13.75 -10.50 -1.10 0 -10.30 16.50 -10.25 18.35 0 0.25 1.55 1.10 3.40 2 8.25 3.90 16.85 10.10 23.85 17.10 2.20 2.25 4.05 4.05 4.15 4.05 0.10 0 1.55 -1.40 3.25 -3.15z m17.45 -8.20 c0.10 -1.90 0 -7.20 -0.20 -11.90 -0.50 -12.30 -2.65 -22.55 -7.25 -34.60 -1.60 -4.20 -1.90 -4.65 -3.05 -4.65 -2.45 0 -7.90 1.60 -11.90 3.50 -3.95 1.90 -10.10 6.10 -10.50 7.20 -0.10 0.30 2.25 3.05 5.25 6.10 9.45 9.70 16.35 21.90 19.55 34.60 0.50 2.05 0.60 2.10 2.65 2.15 1.15 0.05 2.65 0.25 3.35 0.45 0.70 0.20 1.40 0.40 1.60 0.45 0.15 0.05 0.40 -1.45 0.50 -3.30z m-58.10 -116.85 c0 -0.45 -1.95 -1.25 -5.85 -2.30 -3.25 -0.90 -8.50 -2.30 -11.65 -3.20 l-5.75 -1.60 0.20 -12.85 c0.15 -11.05 0.10 -12.85 -0.55 -12.85 -1.05 0 -1.75 24.65 -0.70 26.25 0.50 0.75 3.30 1.75 11.85 4.10 6.15 1.70 11.50 3.10 11.85 3.10 0.30 0.05 0.60 -0.25 0.60 -0.65z m4.85 -2.40 c0.20 -0.35 0.55 -6.05 0.75 -12.65 0.25 -9 0.20 -12.15 -0.25 -12.55 -0.35 -0.35 -5.85 -2.35 -12.25 -4.50 -10.60 -3.55 -11.70 -3.85 -12.40 -3.10 -0.70 0.65 -0.85 2.90 -1.20 13.45 -0.25 9.05 -0.20 12.85 0.20 13.30 0.70 0.75 20.95 6.50 23.15 6.60 0.85 0 1.75 -0.25 2 -0.55z"/>
  <path d="M582.25 659.20 c-2.30 -1.15 -3.50 -2.50 -5.15 -5.60 -5.60 -10.55 -3.85 -28.20 3.40 -34.25 3.15 -2.70 6.25 -2.40 9.40 0.80 6.05 6.15 7.70 20.65 3.65 31.40 -1.40 3.70 -4.55 7.25 -6.95 7.95 -2.40 0.65 -2.60 0.65 -4.35 -0.30z"/>
  <path d="M582.20 454.50 c-3.50 -2.25 -6.30 -8.45 -7.20 -15.90 -1.45 -11.75 3.15 -23.75 9.65 -25.30 2.20 -0.50 5.50 1.20 7.50 4 6.30 8.70 6.15 26.05 -0.35 34.85 -2.40 3.25 -6.55 4.30 -9.60 2.35z"/>
  <path d="M584.35 253.50 c-2.40 -0.70 -4.60 -2.80 -6.20 -5.85 -2.45 -4.55 -3.30 -8.60 -3.30 -15.15 0 -19.45 11.95 -28.40 19.05 -14.20 3.80 7.50 3.80 20.90 0 28.40 -2.70 5.40 -6.10 7.80 -9.55 6.80z"/>
 </g>
</svg>